%TF.GenerationSoftware,KiCad,Pcbnew,6.0.11-2627ca5db0~126~ubuntu20.04.1*%
%TF.CreationDate,2024-05-08T08:33:10-06:00*%
%TF.ProjectId,LaserPID,4c617365-7250-4494-942e-6b696361645f,rev?*%
%TF.SameCoordinates,Original*%
%TF.FileFunction,Paste,Top*%
%TF.FilePolarity,Positive*%
%FSLAX46Y46*%
G04 Gerber Fmt 4.6, Leading zero omitted, Abs format (unit mm)*
G04 Created by KiCad (PCBNEW 6.0.11-2627ca5db0~126~ubuntu20.04.1) date 2024-05-08 08:33:10*
%MOMM*%
%LPD*%
G01*
G04 APERTURE LIST*
G04 Aperture macros list*
%AMRoundRect*
0 Rectangle with rounded corners*
0 $1 Rounding radius*
0 $2 $3 $4 $5 $6 $7 $8 $9 X,Y pos of 4 corners*
0 Add a 4 corners polygon primitive as box body*
4,1,4,$2,$3,$4,$5,$6,$7,$8,$9,$2,$3,0*
0 Add four circle primitives for the rounded corners*
1,1,$1+$1,$2,$3*
1,1,$1+$1,$4,$5*
1,1,$1+$1,$6,$7*
1,1,$1+$1,$8,$9*
0 Add four rect primitives between the rounded corners*
20,1,$1+$1,$2,$3,$4,$5,0*
20,1,$1+$1,$4,$5,$6,$7,0*
20,1,$1+$1,$6,$7,$8,$9,0*
20,1,$1+$1,$8,$9,$2,$3,0*%
G04 Aperture macros list end*
%ADD10RoundRect,0.250000X-0.412500X-0.650000X0.412500X-0.650000X0.412500X0.650000X-0.412500X0.650000X0*%
%ADD11RoundRect,0.250000X0.412500X0.650000X-0.412500X0.650000X-0.412500X-0.650000X0.412500X-0.650000X0*%
%ADD12RoundRect,0.249999X0.650001X-0.412501X0.650001X0.412501X-0.650001X0.412501X-0.650001X-0.412501X0*%
%ADD13RoundRect,0.249999X-0.650001X0.412501X-0.650001X-0.412501X0.650001X-0.412501X0.650001X0.412501X0*%
%ADD14RoundRect,0.249999X-0.412501X-0.650001X0.412501X-0.650001X0.412501X0.650001X-0.412501X0.650001X0*%
%ADD15RoundRect,0.249999X0.412501X0.650001X-0.412501X0.650001X-0.412501X-0.650001X0.412501X-0.650001X0*%
%ADD16RoundRect,0.250000X-0.625000X0.400000X-0.625000X-0.400000X0.625000X-0.400000X0.625000X0.400000X0*%
%ADD17RoundRect,0.250000X0.400000X0.625000X-0.400000X0.625000X-0.400000X-0.625000X0.400000X-0.625000X0*%
%ADD18RoundRect,0.250000X0.625000X-0.400000X0.625000X0.400000X-0.625000X0.400000X-0.625000X-0.400000X0*%
%ADD19RoundRect,0.250000X-0.400000X-0.625000X0.400000X-0.625000X0.400000X0.625000X-0.400000X0.625000X0*%
%ADD20RoundRect,0.150000X0.825000X0.150000X-0.825000X0.150000X-0.825000X-0.150000X0.825000X-0.150000X0*%
%ADD21RoundRect,0.250001X-0.462499X-0.624999X0.462499X-0.624999X0.462499X0.624999X-0.462499X0.624999X0*%
%ADD22RoundRect,0.250001X0.462499X0.624999X-0.462499X0.624999X-0.462499X-0.624999X0.462499X-0.624999X0*%
G04 APERTURE END LIST*
D10*
%TO.C,C1*%
X802398300Y-103200200D03*
X805523300Y-103200200D03*
%TD*%
D11*
%TO.C,C2*%
X805472500Y-108204000D03*
X802347500Y-108204000D03*
%TD*%
D10*
%TO.C,C3*%
X796873400Y-103962200D03*
X799998400Y-103962200D03*
%TD*%
D12*
%TO.C,C7*%
X771525000Y-56808500D03*
X771525000Y-53683500D03*
%TD*%
D13*
%TO.C,C8*%
X779653000Y-36537500D03*
X779653000Y-39662500D03*
%TD*%
D12*
%TO.C,C9*%
X771525000Y-78105000D03*
X771525000Y-74980000D03*
%TD*%
D13*
%TO.C,C10*%
X779780000Y-58127500D03*
X779780000Y-61252500D03*
%TD*%
D14*
%TO.C,C11*%
X794308000Y-62230000D03*
X797433000Y-62230000D03*
%TD*%
D13*
%TO.C,C12*%
X808951500Y-50253500D03*
X808951500Y-53378500D03*
%TD*%
D12*
%TO.C,C16*%
X771398000Y-128651000D03*
X771398000Y-125526000D03*
%TD*%
D15*
%TO.C,C18*%
X813258000Y-85852000D03*
X810133000Y-85852000D03*
%TD*%
D13*
%TO.C,C20*%
X797267500Y-23403500D03*
X797267500Y-26528500D03*
%TD*%
D16*
%TO.C,R1*%
X797267500Y-42037000D03*
X797267500Y-45137000D03*
%TD*%
D17*
%TO.C,R2*%
X793229500Y-45212000D03*
X790129500Y-45212000D03*
%TD*%
%TO.C,R7*%
X788696000Y-30861000D03*
X785596000Y-30861000D03*
%TD*%
D18*
%TO.C,R8*%
X799261800Y-70002400D03*
X799261800Y-66902400D03*
%TD*%
D17*
%TO.C,R9*%
X803008500Y-26289000D03*
X799908500Y-26289000D03*
%TD*%
D19*
%TO.C,R10*%
X799934500Y-22860000D03*
X803034500Y-22860000D03*
%TD*%
D18*
%TO.C,R12*%
X797267500Y-39168000D03*
X797267500Y-36068000D03*
%TD*%
D16*
%TO.C,R13*%
X792695500Y-30861000D03*
X792695500Y-33961000D03*
%TD*%
D20*
%TO.C,U7*%
X802282500Y-33427000D03*
X802282500Y-32157000D03*
X802282500Y-30887000D03*
X802282500Y-29617000D03*
X797332500Y-29617000D03*
X797332500Y-30887000D03*
X797332500Y-32157000D03*
X797332500Y-33427000D03*
%TD*%
D17*
%TO.C,R5*%
X798551200Y-118440200D03*
X795451200Y-118440200D03*
%TD*%
D13*
%TO.C,C5*%
X779780000Y-78066500D03*
X779780000Y-81191500D03*
%TD*%
D14*
%TO.C,C4*%
X768311500Y-95377000D03*
X771436500Y-95377000D03*
%TD*%
D18*
%TO.C,R11*%
X802347500Y-39168000D03*
X802347500Y-36068000D03*
%TD*%
D13*
%TO.C,C17*%
X779780000Y-107403500D03*
X779780000Y-110528500D03*
%TD*%
D15*
%TO.C,C19*%
X813272500Y-74676000D03*
X810147500Y-74676000D03*
%TD*%
D21*
%TO.C,D4*%
X802459000Y-100325000D03*
X805434000Y-100325000D03*
%TD*%
D11*
%TO.C,C13*%
X799999200Y-107188000D03*
X796874200Y-107188000D03*
%TD*%
D22*
%TO.C,D5*%
X805347000Y-110993000D03*
X802372000Y-110993000D03*
%TD*%
M02*
