M48
; DRILL file {KiCad 6.0.11-2627ca5db0~126~ubuntu20.04.1} date Wed 08 May 2024 08:33:14
; FORMAT={-:-/ absolute / inch / decimal}
; #@! TF.CreationDate,2024-05-08T08:33:14-06:00
; #@! TF.GenerationSoftware,Kicad,Pcbnew,6.0.11-2627ca5db0~126~ubuntu20.04.1
; #@! TF.FileFunction,Plated,1,2,PTH
FMAT,2
INCH
; #@! TA.AperFunction,Plated,PTH,ComponentDrill
T1C0.0197
; #@! TA.AperFunction,Plated,PTH,ViaDrill
T2C0.0295
; #@! TA.AperFunction,Plated,PTH,ComponentDrill
T3C0.0295
; #@! TA.AperFunction,Plated,PTH,ComponentDrill
T4C0.0315
; #@! TA.AperFunction,Plated,PTH,ComponentDrill
T5C0.0350
; #@! TA.AperFunction,Plated,PTH,ComponentDrill
T6C0.0354
; #@! TA.AperFunction,Plated,PTH,ViaDrill
T7C0.0394
; #@! TA.AperFunction,Plated,PTH,ComponentDrill
T8C0.0394
; #@! TA.AperFunction,Plated,PTH,ComponentDrill
T9C0.0598
; #@! TA.AperFunction,Plated,PTH,ComponentDrill
T10C0.0791
%
G90
G05
T1
X30.89Y-3.39
X30.905Y-3.025
X31.169Y-1.598
X31.843Y-2.259
X32.06Y-3.146
X32.061Y-2.705
T2
X30.37Y-5.175
T3
X31.369Y-4.3688
X31.374Y-3.9502
X31.419Y-4.3688
X31.424Y-3.9502
X31.469Y-4.3688
X31.474Y-3.9502
T4
X30.3745Y-1.68
X30.3745Y-1.78
X30.3745Y-1.88
X30.3745Y-1.98
X30.3745Y-2.5345
X30.3745Y-2.6345
X30.3745Y-2.7345
X30.3745Y-2.8345
X30.3745Y-3.31
X30.3745Y-3.41
X30.3745Y-3.51
X30.3745Y-3.61
X30.3745Y-4.47
X30.3745Y-4.57
X30.3745Y-4.67
X30.3745Y-4.77
X30.6745Y-1.68
X30.6745Y-1.78
X30.6745Y-1.88
X30.6745Y-1.98
X30.6745Y-2.5345
X30.6745Y-2.6345
X30.6745Y-2.7345
X30.6745Y-2.8345
X30.6745Y-3.31
X30.6745Y-3.41
X30.6745Y-3.51
X30.6745Y-3.61
X30.6745Y-4.47
X30.6745Y-4.57
X30.6745Y-4.67
X30.6745Y-4.77
X30.905Y-2.63
X30.905Y-2.73
X30.905Y-2.83
X31.252Y-2.6276
X31.252Y-2.7276
X31.252Y-2.8276
X31.3939Y-2.0004
X31.3939Y-2.1004
X31.3939Y-2.2004
X31.3939Y-2.3004
X31.465Y-2.94
X31.47Y-3.38
X31.6646Y-2.705
X31.6696Y-3.145
X31.6939Y-2.0004
X31.6939Y-2.1004
X31.6939Y-2.2004
X31.6939Y-2.3004
X31.7646Y-2.705
X31.765Y-2.94
X31.7696Y-3.145
X31.77Y-3.38
X31.8646Y-2.705
X31.8696Y-3.145
T5
X29.9061Y-1.5502
X29.9061Y-1.6502
X29.9061Y-2.5502
X29.9061Y-2.6502
X29.9061Y-3.55
X29.9061Y-3.65
X29.9061Y-4.55
X29.9061Y-4.65
T6
X31.55Y-4.662
X31.65Y-4.662
T7
X30.276Y-3.671
X30.285Y-3.075
X30.29Y-2.24
X30.588Y-5.035
X30.6174Y-1.5576
X30.6174Y-2.4074
X30.6174Y-3.1976
X30.6174Y-4.3524
X30.675Y-4.9668
X30.685Y-2.215
X30.69Y-1.355
X30.7Y-2.995
X30.7Y-4.14
X31.1885Y-2.445
X31.2085Y-1.415
X31.3935Y-0.835
X31.4785Y-1.22
X31.5592Y-3.705
X31.6785Y-1.215
X31.6835Y-0.985
X31.7135Y-4.1545
X31.8485Y-1.875
X32.018Y-3.519
X32.09Y-2.847
T8
X30.9Y-1.4893
X30.9Y-1.8393
X30.905Y-2.0378
X30.905Y-2.3878
T9
X32.015Y-3.96
X32.015Y-4.16
X32.015Y-4.36
T10
X29.7061Y-1.3502
X29.7061Y-1.7502
X29.7061Y-2.3502
X29.7061Y-2.7502
X29.7061Y-3.35
X29.7061Y-3.75
X29.7061Y-4.35
X29.7061Y-4.75
T3
G00X30.1247Y-4.0149
M15
G01X30.1739Y-4.0149
M16
G05
G00X30.1247Y-4.1133
M15
G01X30.1739Y-4.1133
M16
G05
G00X30.1247Y-4.2117
M15
G01X30.1739Y-4.2117
M16
G05
G00X30.2861Y-4.0149
M15
G01X30.3353Y-4.0149
M16
G05
G00X30.2861Y-4.1133
M15
G01X30.3353Y-4.1133
M16
G05
G00X30.2861Y-4.2117
M15
G01X30.3353Y-4.2117
M16
G05
T0
M30
