%TF.GenerationSoftware,KiCad,Pcbnew,6.0.11-2627ca5db0~126~ubuntu20.04.1*%
%TF.CreationDate,2024-05-08T08:33:10-06:00*%
%TF.ProjectId,LaserPID,4c617365-7250-4494-942e-6b696361645f,rev?*%
%TF.SameCoordinates,Original*%
%TF.FileFunction,Soldermask,Bot*%
%TF.FilePolarity,Negative*%
%FSLAX46Y46*%
G04 Gerber Fmt 4.6, Leading zero omitted, Abs format (unit mm)*
G04 Created by KiCad (PCBNEW 6.0.11-2627ca5db0~126~ubuntu20.04.1) date 2024-05-08 08:33:10*
%MOMM*%
%LPD*%
G01*
G04 APERTURE LIST*
G04 Aperture macros list*
%AMFreePoly0*
4,1,127,3.606109,1.749963,3.639805,1.744716,3.673905,1.744508,3.709490,1.733866,3.746186,1.728152,3.777052,1.713661,3.809726,1.703889,3.840894,1.683687,3.874511,1.667904,3.900069,1.645332,3.928688,1.626782,3.952933,1.598644,3.980769,1.574060,3.998966,1.545219,4.021226,1.519385,4.036598,1.485576,4.056417,1.454165,4.065788,1.421377,4.079903,1.390333,4.085168,1.353567,
4.095374,1.317858,4.095166,1.283757,4.100000,1.250000,4.100000,-1.250000,4.099963,-1.256109,4.094716,-1.289805,4.094508,-1.323905,4.083866,-1.359490,4.078152,-1.396186,4.063661,-1.427052,4.053889,-1.459726,4.033687,-1.490894,4.017904,-1.524511,3.995332,-1.550069,3.976782,-1.578688,3.948644,-1.602933,3.924060,-1.630769,3.895219,-1.648966,3.869385,-1.671226,3.835576,-1.686598,
3.804165,-1.706417,3.771377,-1.715788,3.740333,-1.729903,3.703567,-1.735168,3.667858,-1.745374,3.633757,-1.745166,3.600000,-1.750000,1.500000,-1.750000,1.493891,-1.749963,1.460195,-1.744716,1.426095,-1.744508,1.390510,-1.733866,1.353814,-1.728152,1.322948,-1.713661,1.290274,-1.703889,1.259106,-1.683687,1.225489,-1.667904,1.199931,-1.645332,1.171312,-1.626782,1.147067,-1.598644,
1.119231,-1.574060,1.101034,-1.545219,1.078774,-1.519385,1.063402,-1.485576,1.043583,-1.454165,1.034212,-1.421377,1.020097,-1.390333,1.014832,-1.353567,1.004626,-1.317858,1.004834,-1.283757,1.000000,-1.250000,1.000000,-1.113992,0.968187,-1.145694,0.768064,-1.288440,0.547315,-1.396584,0.311868,-1.467221,0.068044,-1.498456,-0.177606,-1.489448,-0.418487,-1.440441,-0.648129,-1.352749,
-0.860365,-1.228728,-1.049495,-1.071709,-1.210440,-0.885909,-1.338879,-0.676316,-1.431360,-0.448561,-1.485402,-0.208760,-1.499552,0.036648,-1.473431,0.281072,-1.407740,0.517947,-1.304242,0.740913,-1.165719,0.943981,-0.995889,1.121697,-0.799314,1.269290,-0.581273,1.382795,-0.347622,1.459164,-0.104635,1.496346,0.141162,1.493343,0.383169,1.450235,0.614885,1.368180,0.830087,1.249382,
1.000000,1.115194,1.000000,1.250000,1.000037,1.256109,1.005284,1.289805,1.005492,1.323905,1.016134,1.359490,1.021848,1.396186,1.036339,1.427052,1.046111,1.459726,1.066313,1.490894,1.082096,1.524511,1.104668,1.550069,1.123218,1.578688,1.151356,1.602933,1.175940,1.630769,1.204781,1.648966,1.230615,1.671226,1.264424,1.686598,1.295835,1.706417,1.328623,1.715788,
1.359667,1.729903,1.396433,1.735168,1.432142,1.745374,1.466243,1.745166,1.500000,1.750000,3.600000,1.750000,3.606109,1.749963,3.606109,1.749963,$1*%
G04 Aperture macros list end*
%ADD10FreePoly0,90.000000*%
%ADD11FreePoly0,270.000000*%
%ADD12R,1.800000X1.800000*%
%ADD13C,1.800000*%
%ADD14R,3.000000X3.000000*%
%ADD15C,3.000000*%
%ADD16C,1.440000*%
%ADD17R,1.600000X1.600000*%
%ADD18O,1.600000X1.600000*%
%ADD19O,2.500000X1.600000*%
%ADD20O,7.000000X3.500000*%
%ADD21C,1.000000*%
%ADD22R,1.050000X1.500000*%
%ADD23O,1.050000X1.500000*%
%ADD24C,4.300000*%
%ADD25R,3.000000X1.000000*%
G04 APERTURE END LIST*
D10*
%TO.C,C6*%
X784860000Y-46719000D03*
D11*
X784860000Y-37829000D03*
%TD*%
D12*
%TO.C,D3*%
X803910000Y-118414800D03*
D13*
X801370000Y-118414800D03*
%TD*%
D14*
%TO.C,P1*%
X813181000Y-100584000D03*
D15*
X813181000Y-105664000D03*
X813181000Y-110744000D03*
%TD*%
D11*
%TO.C,R6*%
X784987000Y-51761000D03*
D10*
X784987000Y-60651000D03*
%TD*%
D16*
%TO.C,RVGAIN1*%
X793800800Y-66741200D03*
X793800800Y-69281200D03*
X793800800Y-71821200D03*
%TD*%
%TO.C,RVULIM*%
X804408000Y-79883000D03*
X806948000Y-79883000D03*
X809488000Y-79883000D03*
%TD*%
D17*
%TO.C,U2*%
X771511499Y-42672000D03*
D18*
X771511499Y-45212000D03*
X771511499Y-47752000D03*
X771511499Y-50292000D03*
X779131499Y-50292000D03*
X779131499Y-47752000D03*
X779131499Y-45212000D03*
X779131499Y-42672000D03*
%TD*%
D17*
%TO.C,U3*%
X771511499Y-64375499D03*
D18*
X771511499Y-66915499D03*
X771511499Y-69455499D03*
X771511499Y-71995499D03*
X779131499Y-71995499D03*
X779131499Y-69455499D03*
X779131499Y-66915499D03*
X779131499Y-64375499D03*
%TD*%
D17*
%TO.C,U4*%
X797404500Y-50810000D03*
D18*
X797404500Y-53350000D03*
X797404500Y-55890000D03*
X797404500Y-58430000D03*
X805024500Y-58430000D03*
X805024500Y-55890000D03*
X805024500Y-53350000D03*
X805024500Y-50810000D03*
%TD*%
D17*
%TO.C,U6*%
X771511499Y-113538000D03*
D18*
X771511499Y-116078000D03*
X771511499Y-118618000D03*
X771511499Y-121158000D03*
X779131499Y-121158000D03*
X779131499Y-118618000D03*
X779131499Y-116078000D03*
X779131499Y-113538000D03*
%TD*%
D17*
%TO.C,D1*%
X806958000Y-85852000D03*
D18*
X799338000Y-85852000D03*
%TD*%
D17*
%TO.C,U1*%
X771511499Y-84074000D03*
D18*
X771511499Y-86614000D03*
X771511499Y-89154000D03*
X771511499Y-91694000D03*
X779131499Y-91694000D03*
X779131499Y-89154000D03*
X779131499Y-86614000D03*
X779131499Y-84074000D03*
%TD*%
D16*
%TO.C,RVPROP1*%
X784987000Y-66802000D03*
X784987000Y-69342000D03*
X784987000Y-71882000D03*
%TD*%
D17*
%TO.C,D2*%
X799211000Y-74676000D03*
D18*
X806831000Y-74676000D03*
%TD*%
D16*
%TO.C,RVLLIM*%
X804281000Y-68707000D03*
X806821000Y-68707000D03*
X809361000Y-68707000D03*
%TD*%
D19*
%TO.C,P4*%
X759616000Y-115570000D03*
D20*
X754536000Y-120650000D03*
D19*
X759616000Y-118110000D03*
D20*
X754536000Y-110490000D03*
%TD*%
D21*
%TO.C,W6*%
X814349400Y-68707000D03*
%TD*%
D22*
%TO.C,U5*%
X796899600Y-100334400D03*
D23*
X798169600Y-100334400D03*
X799439600Y-100334400D03*
%TD*%
D21*
%TO.C,W5*%
X814324000Y-79908400D03*
%TD*%
D24*
%TO.C,REF\u002A\u002A*%
X751586000Y-131064000D03*
%TD*%
D19*
%TO.C,P5*%
X759616000Y-39374000D03*
X759616000Y-41914000D03*
D20*
X754536000Y-34294000D03*
X754536000Y-44454000D03*
%TD*%
D21*
%TO.C,W3*%
X784987000Y-76835000D03*
%TD*%
%TO.C,W1*%
X784606000Y-86106000D03*
%TD*%
D24*
%TO.C,REF\u002A\u002A*%
X812546000Y-23876000D03*
%TD*%
D21*
%TO.C,W2*%
X791692600Y-40589200D03*
%TD*%
D19*
%TO.C,P2*%
X759616000Y-64774000D03*
X759616000Y-67314000D03*
D20*
X754536000Y-59694000D03*
X754536000Y-69854000D03*
%TD*%
D22*
%TO.C,U8*%
X799312600Y-110968200D03*
D23*
X798042600Y-110968200D03*
X796772600Y-110968200D03*
%TD*%
D25*
%TO.C,SW1*%
X765792000Y-101978000D03*
X765792000Y-104478000D03*
X765792000Y-106978000D03*
X769892000Y-101978000D03*
X769892000Y-104478000D03*
X769892000Y-106978000D03*
%TD*%
D19*
%TO.C,P3*%
X759616000Y-90170000D03*
D20*
X754536000Y-85090000D03*
X754536000Y-95250000D03*
D19*
X759616000Y-92710000D03*
%TD*%
D24*
%TO.C,REF\u002A\u002A*%
X812546000Y-131064000D03*
%TD*%
D21*
%TO.C,W4*%
X808812200Y-57378600D03*
%TD*%
D24*
%TO.C,REF\u002A\u002A*%
X751586000Y-23876000D03*
%TD*%
M02*
