%TF.GenerationSoftware,KiCad,Pcbnew,6.0.11-2627ca5db0~126~ubuntu20.04.1*%
%TF.CreationDate,2024-05-08T08:33:10-06:00*%
%TF.ProjectId,LaserPID,4c617365-7250-4494-942e-6b696361645f,rev?*%
%TF.SameCoordinates,Original*%
%TF.FileFunction,Legend,Top*%
%TF.FilePolarity,Positive*%
%FSLAX46Y46*%
G04 Gerber Fmt 4.6, Leading zero omitted, Abs format (unit mm)*
G04 Created by KiCad (PCBNEW 6.0.11-2627ca5db0~126~ubuntu20.04.1) date 2024-05-08 08:33:10*
%MOMM*%
%LPD*%
G01*
G04 APERTURE LIST*
%ADD10C,0.150000*%
%ADD11C,0.100000*%
%ADD12C,0.120000*%
G04 APERTURE END LIST*
D10*
X796827152Y-133970780D02*
X796827152Y-134685066D01*
X796779533Y-134827923D01*
X796684295Y-134923161D01*
X796541438Y-134970780D01*
X796446200Y-134970780D01*
X797779533Y-134970780D02*
X797303342Y-134970780D01*
X797303342Y-133970780D01*
X798684295Y-134875542D02*
X798636676Y-134923161D01*
X798493819Y-134970780D01*
X798398580Y-134970780D01*
X798255723Y-134923161D01*
X798160485Y-134827923D01*
X798112866Y-134732685D01*
X798065247Y-134542209D01*
X798065247Y-134399352D01*
X798112866Y-134208876D01*
X798160485Y-134113638D01*
X798255723Y-134018400D01*
X798398580Y-133970780D01*
X798493819Y-133970780D01*
X798636676Y-134018400D01*
X798684295Y-134066019D01*
X799398580Y-133970780D02*
X799398580Y-134685066D01*
X799350961Y-134827923D01*
X799255723Y-134923161D01*
X799112866Y-134970780D01*
X799017628Y-134970780D01*
X800350961Y-134970780D02*
X799874771Y-134970780D01*
X799874771Y-133970780D01*
X801255723Y-134875542D02*
X801208104Y-134923161D01*
X801065247Y-134970780D01*
X800970009Y-134970780D01*
X800827152Y-134923161D01*
X800731914Y-134827923D01*
X800684295Y-134732685D01*
X800636676Y-134542209D01*
X800636676Y-134399352D01*
X800684295Y-134208876D01*
X800731914Y-134113638D01*
X800827152Y-134018400D01*
X800970009Y-133970780D01*
X801065247Y-133970780D01*
X801208104Y-134018400D01*
X801255723Y-134066019D01*
X801970009Y-133970780D02*
X801970009Y-134685066D01*
X801922390Y-134827923D01*
X801827152Y-134923161D01*
X801684295Y-134970780D01*
X801589057Y-134970780D01*
X802922390Y-134970780D02*
X802446200Y-134970780D01*
X802446200Y-133970780D01*
X803827152Y-134875542D02*
X803779533Y-134923161D01*
X803636676Y-134970780D01*
X803541438Y-134970780D01*
X803398580Y-134923161D01*
X803303342Y-134827923D01*
X803255723Y-134732685D01*
X803208104Y-134542209D01*
X803208104Y-134399352D01*
X803255723Y-134208876D01*
X803303342Y-134113638D01*
X803398580Y-134018400D01*
X803541438Y-133970780D01*
X803636676Y-133970780D01*
X803779533Y-134018400D01*
X803827152Y-134066019D01*
X804541438Y-133970780D02*
X804541438Y-134685066D01*
X804493819Y-134827923D01*
X804398580Y-134923161D01*
X804255723Y-134970780D01*
X804160485Y-134970780D01*
X805493819Y-134970780D02*
X805017628Y-134970780D01*
X805017628Y-133970780D01*
X806398580Y-134875542D02*
X806350961Y-134923161D01*
X806208104Y-134970780D01*
X806112866Y-134970780D01*
X805970009Y-134923161D01*
X805874771Y-134827923D01*
X805827152Y-134732685D01*
X805779533Y-134542209D01*
X805779533Y-134399352D01*
X805827152Y-134208876D01*
X805874771Y-134113638D01*
X805970009Y-134018400D01*
X806112866Y-133970780D01*
X806208104Y-133970780D01*
X806350961Y-134018400D01*
X806398580Y-134066019D01*
D11*
X773506390Y-107239571D02*
X773482581Y-107263380D01*
X773411152Y-107287190D01*
X773363533Y-107287190D01*
X773292105Y-107263380D01*
X773244486Y-107215761D01*
X773220676Y-107168142D01*
X773196867Y-107072904D01*
X773196867Y-107001476D01*
X773220676Y-106906238D01*
X773244486Y-106858619D01*
X773292105Y-106811000D01*
X773363533Y-106787190D01*
X773411152Y-106787190D01*
X773482581Y-106811000D01*
X773506390Y-106834809D01*
X773792105Y-107287190D02*
X773744486Y-107263380D01*
X773720676Y-107215761D01*
X773720676Y-106787190D01*
X774054009Y-107287190D02*
X774006390Y-107263380D01*
X773982581Y-107239571D01*
X773958771Y-107191952D01*
X773958771Y-107049095D01*
X773982581Y-107001476D01*
X774006390Y-106977666D01*
X774054009Y-106953857D01*
X774125438Y-106953857D01*
X774173057Y-106977666D01*
X774196867Y-107001476D01*
X774220676Y-107049095D01*
X774220676Y-107191952D01*
X774196867Y-107239571D01*
X774173057Y-107263380D01*
X774125438Y-107287190D01*
X774054009Y-107287190D01*
X774411152Y-107263380D02*
X774458771Y-107287190D01*
X774554009Y-107287190D01*
X774601629Y-107263380D01*
X774625438Y-107215761D01*
X774625438Y-107191952D01*
X774601629Y-107144333D01*
X774554009Y-107120523D01*
X774482581Y-107120523D01*
X774434962Y-107096714D01*
X774411152Y-107049095D01*
X774411152Y-107025285D01*
X774434962Y-106977666D01*
X774482581Y-106953857D01*
X774554009Y-106953857D01*
X774601629Y-106977666D01*
X775030200Y-107263380D02*
X774982581Y-107287190D01*
X774887343Y-107287190D01*
X774839724Y-107263380D01*
X774815914Y-107215761D01*
X774815914Y-107025285D01*
X774839724Y-106977666D01*
X774887343Y-106953857D01*
X774982581Y-106953857D01*
X775030200Y-106977666D01*
X775054009Y-107025285D01*
X775054009Y-107072904D01*
X774815914Y-107120523D01*
X775482581Y-107287190D02*
X775482581Y-106787190D01*
X775482581Y-107263380D02*
X775434962Y-107287190D01*
X775339724Y-107287190D01*
X775292105Y-107263380D01*
X775268295Y-107239571D01*
X775244486Y-107191952D01*
X775244486Y-107049095D01*
X775268295Y-107001476D01*
X775292105Y-106977666D01*
X775339724Y-106953857D01*
X775434962Y-106953857D01*
X775482581Y-106977666D01*
X776173057Y-107287190D02*
X776125438Y-107263380D01*
X776101629Y-107215761D01*
X776101629Y-106787190D01*
X776434962Y-107287190D02*
X776387343Y-107263380D01*
X776363533Y-107239571D01*
X776339724Y-107191952D01*
X776339724Y-107049095D01*
X776363533Y-107001476D01*
X776387343Y-106977666D01*
X776434962Y-106953857D01*
X776506390Y-106953857D01*
X776554009Y-106977666D01*
X776577819Y-107001476D01*
X776601629Y-107049095D01*
X776601629Y-107191952D01*
X776577819Y-107239571D01*
X776554009Y-107263380D01*
X776506390Y-107287190D01*
X776434962Y-107287190D01*
X776887343Y-107287190D02*
X776839724Y-107263380D01*
X776815914Y-107239571D01*
X776792105Y-107191952D01*
X776792105Y-107049095D01*
X776815914Y-107001476D01*
X776839724Y-106977666D01*
X776887343Y-106953857D01*
X776958771Y-106953857D01*
X777006390Y-106977666D01*
X777030200Y-107001476D01*
X777054009Y-107049095D01*
X777054009Y-107191952D01*
X777030200Y-107239571D01*
X777006390Y-107263380D01*
X776958771Y-107287190D01*
X776887343Y-107287190D01*
X777268295Y-106953857D02*
X777268295Y-107453857D01*
X777268295Y-106977666D02*
X777315914Y-106953857D01*
X777411152Y-106953857D01*
X777458771Y-106977666D01*
X777482581Y-107001476D01*
X777506390Y-107049095D01*
X777506390Y-107191952D01*
X777482581Y-107239571D01*
X777458771Y-107263380D01*
X777411152Y-107287190D01*
X777315914Y-107287190D01*
X777268295Y-107263380D01*
X773315914Y-101630990D02*
X773411152Y-101630990D01*
X773458771Y-101654800D01*
X773506390Y-101702419D01*
X773530200Y-101797657D01*
X773530200Y-101964323D01*
X773506390Y-102059561D01*
X773458771Y-102107180D01*
X773411152Y-102130990D01*
X773315914Y-102130990D01*
X773268295Y-102107180D01*
X773220676Y-102059561D01*
X773196866Y-101964323D01*
X773196866Y-101797657D01*
X773220676Y-101702419D01*
X773268295Y-101654800D01*
X773315914Y-101630990D01*
X773744485Y-101797657D02*
X773744485Y-102297657D01*
X773744485Y-101821466D02*
X773792104Y-101797657D01*
X773887342Y-101797657D01*
X773934961Y-101821466D01*
X773958771Y-101845276D01*
X773982580Y-101892895D01*
X773982580Y-102035752D01*
X773958771Y-102083371D01*
X773934961Y-102107180D01*
X773887342Y-102130990D01*
X773792104Y-102130990D01*
X773744485Y-102107180D01*
X774387342Y-102107180D02*
X774339723Y-102130990D01*
X774244485Y-102130990D01*
X774196866Y-102107180D01*
X774173057Y-102059561D01*
X774173057Y-101869085D01*
X774196866Y-101821466D01*
X774244485Y-101797657D01*
X774339723Y-101797657D01*
X774387342Y-101821466D01*
X774411152Y-101869085D01*
X774411152Y-101916704D01*
X774173057Y-101964323D01*
X774625438Y-101797657D02*
X774625438Y-102130990D01*
X774625438Y-101845276D02*
X774649247Y-101821466D01*
X774696866Y-101797657D01*
X774768295Y-101797657D01*
X774815914Y-101821466D01*
X774839723Y-101869085D01*
X774839723Y-102130990D01*
X775530200Y-102130990D02*
X775482580Y-102107180D01*
X775458771Y-102059561D01*
X775458771Y-101630990D01*
X775792104Y-102130990D02*
X775744485Y-102107180D01*
X775720676Y-102083371D01*
X775696866Y-102035752D01*
X775696866Y-101892895D01*
X775720676Y-101845276D01*
X775744485Y-101821466D01*
X775792104Y-101797657D01*
X775863533Y-101797657D01*
X775911152Y-101821466D01*
X775934961Y-101845276D01*
X775958771Y-101892895D01*
X775958771Y-102035752D01*
X775934961Y-102083371D01*
X775911152Y-102107180D01*
X775863533Y-102130990D01*
X775792104Y-102130990D01*
X776244485Y-102130990D02*
X776196866Y-102107180D01*
X776173057Y-102083371D01*
X776149247Y-102035752D01*
X776149247Y-101892895D01*
X776173057Y-101845276D01*
X776196866Y-101821466D01*
X776244485Y-101797657D01*
X776315914Y-101797657D01*
X776363533Y-101821466D01*
X776387342Y-101845276D01*
X776411152Y-101892895D01*
X776411152Y-102035752D01*
X776387342Y-102083371D01*
X776363533Y-102107180D01*
X776315914Y-102130990D01*
X776244485Y-102130990D01*
X776625438Y-101797657D02*
X776625438Y-102297657D01*
X776625438Y-101821466D02*
X776673057Y-101797657D01*
X776768295Y-101797657D01*
X776815914Y-101821466D01*
X776839723Y-101845276D01*
X776863533Y-101892895D01*
X776863533Y-102035752D01*
X776839723Y-102083371D01*
X776815914Y-102107180D01*
X776768295Y-102130990D01*
X776673057Y-102130990D01*
X776625438Y-102107180D01*
D10*
X808450714Y-96353380D02*
X808784047Y-97353380D01*
X809117380Y-96353380D01*
X809450714Y-97353380D02*
X809450714Y-96353380D01*
X809688809Y-96353380D01*
X809831666Y-96401000D01*
X809926904Y-96496238D01*
X809974523Y-96591476D01*
X810022142Y-96781952D01*
X810022142Y-96924809D01*
X809974523Y-97115285D01*
X809926904Y-97210523D01*
X809831666Y-97305761D01*
X809688809Y-97353380D01*
X809450714Y-97353380D01*
X810450714Y-97353380D02*
X810450714Y-96353380D01*
X810688809Y-96353380D01*
X810831666Y-96401000D01*
X810926904Y-96496238D01*
X810974523Y-96591476D01*
X811022142Y-96781952D01*
X811022142Y-96924809D01*
X810974523Y-97115285D01*
X810926904Y-97210523D01*
X810831666Y-97305761D01*
X810688809Y-97353380D01*
X810450714Y-97353380D01*
X812212619Y-96972428D02*
X812974523Y-96972428D01*
X812593571Y-97353380D02*
X812593571Y-96591476D01*
X813974523Y-97353380D02*
X813403095Y-97353380D01*
X813688809Y-97353380D02*
X813688809Y-96353380D01*
X813593571Y-96496238D01*
X813498333Y-96591476D01*
X813403095Y-96639095D01*
X814879285Y-96353380D02*
X814403095Y-96353380D01*
X814355476Y-96829571D01*
X814403095Y-96781952D01*
X814498333Y-96734333D01*
X814736428Y-96734333D01*
X814831666Y-96781952D01*
X814879285Y-96829571D01*
X814926904Y-96924809D01*
X814926904Y-97162904D01*
X814879285Y-97258142D01*
X814831666Y-97305761D01*
X814736428Y-97353380D01*
X814498333Y-97353380D01*
X814403095Y-97305761D01*
X814355476Y-97258142D01*
X815212619Y-96353380D02*
X815545952Y-97353380D01*
X815879285Y-96353380D01*
X807601000Y-106171904D02*
X807553380Y-106267142D01*
X807553380Y-106410000D01*
X807601000Y-106552857D01*
X807696238Y-106648095D01*
X807791476Y-106695714D01*
X807981952Y-106743333D01*
X808124809Y-106743333D01*
X808315285Y-106695714D01*
X808410523Y-106648095D01*
X808505761Y-106552857D01*
X808553380Y-106410000D01*
X808553380Y-106314761D01*
X808505761Y-106171904D01*
X808458142Y-106124285D01*
X808124809Y-106124285D01*
X808124809Y-106314761D01*
X808553380Y-105695714D02*
X807553380Y-105695714D01*
X808553380Y-105124285D01*
X807553380Y-105124285D01*
X808553380Y-104648095D02*
X807553380Y-104648095D01*
X807553380Y-104410000D01*
X807601000Y-104267142D01*
X807696238Y-104171904D01*
X807791476Y-104124285D01*
X807981952Y-104076666D01*
X808124809Y-104076666D01*
X808315285Y-104124285D01*
X808410523Y-104171904D01*
X808505761Y-104267142D01*
X808553380Y-104410000D01*
X808553380Y-104648095D01*
X769462780Y-73584723D02*
X768462780Y-73584723D01*
X768462780Y-73203771D01*
X768510400Y-73108533D01*
X768558019Y-73060914D01*
X768653257Y-73013295D01*
X768796114Y-73013295D01*
X768891352Y-73060914D01*
X768938971Y-73108533D01*
X768986590Y-73203771D01*
X768986590Y-73584723D01*
X769462780Y-72013295D02*
X768986590Y-72346628D01*
X769462780Y-72584723D02*
X768462780Y-72584723D01*
X768462780Y-72203771D01*
X768510400Y-72108533D01*
X768558019Y-72060914D01*
X768653257Y-72013295D01*
X768796114Y-72013295D01*
X768891352Y-72060914D01*
X768938971Y-72108533D01*
X768986590Y-72203771D01*
X768986590Y-72584723D01*
X768462780Y-71394247D02*
X768462780Y-71203771D01*
X768510400Y-71108533D01*
X768605638Y-71013295D01*
X768796114Y-70965676D01*
X769129447Y-70965676D01*
X769319923Y-71013295D01*
X769415161Y-71108533D01*
X769462780Y-71203771D01*
X769462780Y-71394247D01*
X769415161Y-71489485D01*
X769319923Y-71584723D01*
X769129447Y-71632342D01*
X768796114Y-71632342D01*
X768605638Y-71584723D01*
X768510400Y-71489485D01*
X768462780Y-71394247D01*
X769462780Y-70537104D02*
X768462780Y-70537104D01*
X768462780Y-70156152D01*
X768510400Y-70060914D01*
X768558019Y-70013295D01*
X768653257Y-69965676D01*
X768796114Y-69965676D01*
X768891352Y-70013295D01*
X768938971Y-70060914D01*
X768986590Y-70156152D01*
X768986590Y-70537104D01*
X768462780Y-69346628D02*
X768462780Y-69156152D01*
X768510400Y-69060914D01*
X768605638Y-68965676D01*
X768796114Y-68918057D01*
X769129447Y-68918057D01*
X769319923Y-68965676D01*
X769415161Y-69060914D01*
X769462780Y-69156152D01*
X769462780Y-69346628D01*
X769415161Y-69441866D01*
X769319923Y-69537104D01*
X769129447Y-69584723D01*
X768796114Y-69584723D01*
X768605638Y-69537104D01*
X768510400Y-69441866D01*
X768462780Y-69346628D01*
X769462780Y-67918057D02*
X768986590Y-68251390D01*
X769462780Y-68489485D02*
X768462780Y-68489485D01*
X768462780Y-68108533D01*
X768510400Y-68013295D01*
X768558019Y-67965676D01*
X768653257Y-67918057D01*
X768796114Y-67918057D01*
X768891352Y-67965676D01*
X768938971Y-68013295D01*
X768986590Y-68108533D01*
X768986590Y-68489485D01*
X768462780Y-67632342D02*
X768462780Y-67060914D01*
X769462780Y-67346628D02*
X768462780Y-67346628D01*
X769462780Y-66727580D02*
X768462780Y-66727580D01*
X768462780Y-66060914D02*
X768462780Y-65870438D01*
X768510400Y-65775200D01*
X768605638Y-65679961D01*
X768796114Y-65632342D01*
X769129447Y-65632342D01*
X769319923Y-65679961D01*
X769415161Y-65775200D01*
X769462780Y-65870438D01*
X769462780Y-66060914D01*
X769415161Y-66156152D01*
X769319923Y-66251390D01*
X769129447Y-66299009D01*
X768796114Y-66299009D01*
X768605638Y-66251390D01*
X768510400Y-66156152D01*
X768462780Y-66060914D01*
X769462780Y-65203771D02*
X768462780Y-65203771D01*
X769462780Y-64632342D01*
X768462780Y-64632342D01*
X769177066Y-64203771D02*
X769177066Y-63727580D01*
X769462780Y-64299009D02*
X768462780Y-63965676D01*
X769462780Y-63632342D01*
X769462780Y-62822819D02*
X769462780Y-63299009D01*
X768462780Y-63299009D01*
X804758123Y-33835780D02*
X804758123Y-32835780D01*
X805234314Y-33835780D02*
X805234314Y-32835780D01*
X805805742Y-33835780D01*
X805805742Y-32835780D01*
X806139076Y-32835780D02*
X806710504Y-32835780D01*
X806424790Y-33835780D02*
X806424790Y-32835780D01*
X807043838Y-33311971D02*
X807377171Y-33311971D01*
X807520028Y-33835780D02*
X807043838Y-33835780D01*
X807043838Y-32835780D01*
X807520028Y-32835780D01*
X808472409Y-32883400D02*
X808377171Y-32835780D01*
X808234314Y-32835780D01*
X808091457Y-32883400D01*
X807996219Y-32978638D01*
X807948600Y-33073876D01*
X807900980Y-33264352D01*
X807900980Y-33407209D01*
X807948600Y-33597685D01*
X807996219Y-33692923D01*
X808091457Y-33788161D01*
X808234314Y-33835780D01*
X808329552Y-33835780D01*
X808472409Y-33788161D01*
X808520028Y-33740542D01*
X808520028Y-33407209D01*
X808329552Y-33407209D01*
X809520028Y-33835780D02*
X809186695Y-33359590D01*
X808948600Y-33835780D02*
X808948600Y-32835780D01*
X809329552Y-32835780D01*
X809424790Y-32883400D01*
X809472409Y-32931019D01*
X809520028Y-33026257D01*
X809520028Y-33169114D01*
X809472409Y-33264352D01*
X809424790Y-33311971D01*
X809329552Y-33359590D01*
X808948600Y-33359590D01*
X809900980Y-33550066D02*
X810377171Y-33550066D01*
X809805742Y-33835780D02*
X810139076Y-32835780D01*
X810472409Y-33835780D01*
X811281933Y-33835780D02*
X810805742Y-33835780D01*
X810805742Y-32835780D01*
X806496219Y-35445780D02*
X806162885Y-34969590D01*
X805924790Y-35445780D02*
X805924790Y-34445780D01*
X806305742Y-34445780D01*
X806400980Y-34493400D01*
X806448600Y-34541019D01*
X806496219Y-34636257D01*
X806496219Y-34779114D01*
X806448600Y-34874352D01*
X806400980Y-34921971D01*
X806305742Y-34969590D01*
X805924790Y-34969590D01*
X806924790Y-34921971D02*
X807258123Y-34921971D01*
X807400980Y-35445780D02*
X806924790Y-35445780D01*
X806924790Y-34445780D01*
X807400980Y-34445780D01*
X807781933Y-35398161D02*
X807924790Y-35445780D01*
X808162885Y-35445780D01*
X808258123Y-35398161D01*
X808305742Y-35350542D01*
X808353361Y-35255304D01*
X808353361Y-35160066D01*
X808305742Y-35064828D01*
X808258123Y-35017209D01*
X808162885Y-34969590D01*
X807972409Y-34921971D01*
X807877171Y-34874352D01*
X807829552Y-34826733D01*
X807781933Y-34731495D01*
X807781933Y-34636257D01*
X807829552Y-34541019D01*
X807877171Y-34493400D01*
X807972409Y-34445780D01*
X808210504Y-34445780D01*
X808353361Y-34493400D01*
X808781933Y-34921971D02*
X809115266Y-34921971D01*
X809258123Y-35445780D02*
X808781933Y-35445780D01*
X808781933Y-34445780D01*
X809258123Y-34445780D01*
X809543838Y-34445780D02*
X810115266Y-34445780D01*
X809829552Y-35445780D02*
X809829552Y-34445780D01*
X768055457Y-20984866D02*
X768531647Y-20984866D01*
X767960219Y-21270580D02*
X768293552Y-20270580D01*
X768626885Y-21270580D01*
X768960219Y-20603914D02*
X768960219Y-21270580D01*
X768960219Y-20699152D02*
X769007838Y-20651533D01*
X769103076Y-20603914D01*
X769245933Y-20603914D01*
X769341171Y-20651533D01*
X769388790Y-20746771D01*
X769388790Y-21270580D01*
X770293552Y-21270580D02*
X770293552Y-20746771D01*
X770245933Y-20651533D01*
X770150695Y-20603914D01*
X769960219Y-20603914D01*
X769864980Y-20651533D01*
X770293552Y-21222961D02*
X770198314Y-21270580D01*
X769960219Y-21270580D01*
X769864980Y-21222961D01*
X769817361Y-21127723D01*
X769817361Y-21032485D01*
X769864980Y-20937247D01*
X769960219Y-20889628D01*
X770198314Y-20889628D01*
X770293552Y-20842009D01*
X770912600Y-21270580D02*
X770817361Y-21222961D01*
X770769742Y-21127723D01*
X770769742Y-20270580D01*
X771436409Y-21270580D02*
X771341171Y-21222961D01*
X771293552Y-21175342D01*
X771245933Y-21080104D01*
X771245933Y-20794390D01*
X771293552Y-20699152D01*
X771341171Y-20651533D01*
X771436409Y-20603914D01*
X771579266Y-20603914D01*
X771674504Y-20651533D01*
X771722123Y-20699152D01*
X771769742Y-20794390D01*
X771769742Y-21080104D01*
X771722123Y-21175342D01*
X771674504Y-21222961D01*
X771579266Y-21270580D01*
X771436409Y-21270580D01*
X772626885Y-20603914D02*
X772626885Y-21413438D01*
X772579266Y-21508676D01*
X772531647Y-21556295D01*
X772436409Y-21603914D01*
X772293552Y-21603914D01*
X772198314Y-21556295D01*
X772626885Y-21222961D02*
X772531647Y-21270580D01*
X772341171Y-21270580D01*
X772245933Y-21222961D01*
X772198314Y-21175342D01*
X772150695Y-21080104D01*
X772150695Y-20794390D01*
X772198314Y-20699152D01*
X772245933Y-20651533D01*
X772341171Y-20603914D01*
X772531647Y-20603914D01*
X772626885Y-20651533D01*
X773864980Y-21270580D02*
X773864980Y-20270580D01*
X774245933Y-20270580D01*
X774341171Y-20318200D01*
X774388790Y-20365819D01*
X774436409Y-20461057D01*
X774436409Y-20603914D01*
X774388790Y-20699152D01*
X774341171Y-20746771D01*
X774245933Y-20794390D01*
X773864980Y-20794390D01*
X774864980Y-21270580D02*
X774864980Y-20270580D01*
X776055457Y-21222961D02*
X776198314Y-21270580D01*
X776436409Y-21270580D01*
X776531647Y-21222961D01*
X776579266Y-21175342D01*
X776626885Y-21080104D01*
X776626885Y-20984866D01*
X776579266Y-20889628D01*
X776531647Y-20842009D01*
X776436409Y-20794390D01*
X776245933Y-20746771D01*
X776150695Y-20699152D01*
X776103076Y-20651533D01*
X776055457Y-20556295D01*
X776055457Y-20461057D01*
X776103076Y-20365819D01*
X776150695Y-20318200D01*
X776245933Y-20270580D01*
X776484028Y-20270580D01*
X776626885Y-20318200D01*
X777436409Y-21222961D02*
X777341171Y-21270580D01*
X777150695Y-21270580D01*
X777055457Y-21222961D01*
X777007838Y-21127723D01*
X777007838Y-20746771D01*
X777055457Y-20651533D01*
X777150695Y-20603914D01*
X777341171Y-20603914D01*
X777436409Y-20651533D01*
X777484028Y-20746771D01*
X777484028Y-20842009D01*
X777007838Y-20937247D01*
X777912600Y-21270580D02*
X777912600Y-20603914D01*
X777912600Y-20794390D02*
X777960219Y-20699152D01*
X778007838Y-20651533D01*
X778103076Y-20603914D01*
X778198314Y-20603914D01*
X778436409Y-20603914D02*
X778674504Y-21270580D01*
X778912600Y-20603914D01*
X779436409Y-21270580D02*
X779341171Y-21222961D01*
X779293552Y-21175342D01*
X779245933Y-21080104D01*
X779245933Y-20794390D01*
X779293552Y-20699152D01*
X779341171Y-20651533D01*
X779436409Y-20603914D01*
X779579266Y-20603914D01*
X779674504Y-20651533D01*
X779722123Y-20699152D01*
X779769742Y-20794390D01*
X779769742Y-21080104D01*
X779722123Y-21175342D01*
X779674504Y-21222961D01*
X779579266Y-21270580D01*
X779436409Y-21270580D01*
X768698314Y-22880580D02*
X768364980Y-22404390D01*
X768126885Y-22880580D02*
X768126885Y-21880580D01*
X768507838Y-21880580D01*
X768603076Y-21928200D01*
X768650695Y-21975819D01*
X768698314Y-22071057D01*
X768698314Y-22213914D01*
X768650695Y-22309152D01*
X768603076Y-22356771D01*
X768507838Y-22404390D01*
X768126885Y-22404390D01*
X769507838Y-22832961D02*
X769412600Y-22880580D01*
X769222123Y-22880580D01*
X769126885Y-22832961D01*
X769079266Y-22737723D01*
X769079266Y-22356771D01*
X769126885Y-22261533D01*
X769222123Y-22213914D01*
X769412600Y-22213914D01*
X769507838Y-22261533D01*
X769555457Y-22356771D01*
X769555457Y-22452009D01*
X769079266Y-22547247D01*
X769888790Y-22213914D02*
X770126885Y-22880580D01*
X770364980Y-22213914D01*
X771460219Y-21975819D02*
X771507838Y-21928200D01*
X771603076Y-21880580D01*
X771841171Y-21880580D01*
X771936409Y-21928200D01*
X771984028Y-21975819D01*
X772031647Y-22071057D01*
X772031647Y-22166295D01*
X771984028Y-22309152D01*
X771412600Y-22880580D01*
X772031647Y-22880580D01*
X773412600Y-21880580D02*
X773507838Y-21880580D01*
X773603076Y-21928200D01*
X773650695Y-21975819D01*
X773698314Y-22071057D01*
X773745933Y-22261533D01*
X773745933Y-22499628D01*
X773698314Y-22690104D01*
X773650695Y-22785342D01*
X773603076Y-22832961D01*
X773507838Y-22880580D01*
X773412600Y-22880580D01*
X773317361Y-22832961D01*
X773269742Y-22785342D01*
X773222123Y-22690104D01*
X773174504Y-22499628D01*
X773174504Y-22261533D01*
X773222123Y-22071057D01*
X773269742Y-21975819D01*
X773317361Y-21928200D01*
X773412600Y-21880580D01*
X774650695Y-21880580D02*
X774174504Y-21880580D01*
X774126885Y-22356771D01*
X774174504Y-22309152D01*
X774269742Y-22261533D01*
X774507838Y-22261533D01*
X774603076Y-22309152D01*
X774650695Y-22356771D01*
X774698314Y-22452009D01*
X774698314Y-22690104D01*
X774650695Y-22785342D01*
X774603076Y-22832961D01*
X774507838Y-22880580D01*
X774269742Y-22880580D01*
X774174504Y-22832961D01*
X774126885Y-22785342D01*
X775126885Y-22499628D02*
X775888790Y-22499628D01*
X776317361Y-21975819D02*
X776364980Y-21928200D01*
X776460219Y-21880580D01*
X776698314Y-21880580D01*
X776793552Y-21928200D01*
X776841171Y-21975819D01*
X776888790Y-22071057D01*
X776888790Y-22166295D01*
X776841171Y-22309152D01*
X776269742Y-22880580D01*
X776888790Y-22880580D01*
X777507838Y-21880580D02*
X777603076Y-21880580D01*
X777698314Y-21928200D01*
X777745933Y-21975819D01*
X777793552Y-22071057D01*
X777841171Y-22261533D01*
X777841171Y-22499628D01*
X777793552Y-22690104D01*
X777745933Y-22785342D01*
X777698314Y-22832961D01*
X777603076Y-22880580D01*
X777507838Y-22880580D01*
X777412600Y-22832961D01*
X777364980Y-22785342D01*
X777317361Y-22690104D01*
X777269742Y-22499628D01*
X777269742Y-22261533D01*
X777317361Y-22071057D01*
X777364980Y-21975819D01*
X777412600Y-21928200D01*
X777507838Y-21880580D01*
X778222123Y-21975819D02*
X778269742Y-21928200D01*
X778364980Y-21880580D01*
X778603076Y-21880580D01*
X778698314Y-21928200D01*
X778745933Y-21975819D01*
X778793552Y-22071057D01*
X778793552Y-22166295D01*
X778745933Y-22309152D01*
X778174504Y-22880580D01*
X778793552Y-22880580D01*
X779650695Y-22213914D02*
X779650695Y-22880580D01*
X779412600Y-21832961D02*
X779174504Y-22547247D01*
X779793552Y-22547247D01*
X769745933Y-24490580D02*
X769412600Y-24014390D01*
X769174504Y-24490580D02*
X769174504Y-23490580D01*
X769555457Y-23490580D01*
X769650695Y-23538200D01*
X769698314Y-23585819D01*
X769745933Y-23681057D01*
X769745933Y-23823914D01*
X769698314Y-23919152D01*
X769650695Y-23966771D01*
X769555457Y-24014390D01*
X769174504Y-24014390D01*
X770079266Y-23823914D02*
X770317361Y-24490580D01*
X770555457Y-23823914D02*
X770317361Y-24490580D01*
X770222123Y-24728676D01*
X770174504Y-24776295D01*
X770079266Y-24823914D01*
X771364980Y-24490580D02*
X771364980Y-23966771D01*
X771317361Y-23871533D01*
X771222123Y-23823914D01*
X771031647Y-23823914D01*
X770936409Y-23871533D01*
X771364980Y-24442961D02*
X771269742Y-24490580D01*
X771031647Y-24490580D01*
X770936409Y-24442961D01*
X770888790Y-24347723D01*
X770888790Y-24252485D01*
X770936409Y-24157247D01*
X771031647Y-24109628D01*
X771269742Y-24109628D01*
X771364980Y-24062009D01*
X771841171Y-23823914D02*
X771841171Y-24490580D01*
X771841171Y-23919152D02*
X771888790Y-23871533D01*
X771984028Y-23823914D01*
X772126885Y-23823914D01*
X772222123Y-23871533D01*
X772269742Y-23966771D01*
X772269742Y-24490580D01*
X773364980Y-23490580D02*
X773936409Y-23490580D01*
X773650695Y-24490580D02*
X773650695Y-23490580D01*
X774269742Y-24490580D02*
X774269742Y-23490580D01*
X774698314Y-24490580D02*
X774698314Y-23966771D01*
X774650695Y-23871533D01*
X774555457Y-23823914D01*
X774412600Y-23823914D01*
X774317361Y-23871533D01*
X774269742Y-23919152D01*
X775317361Y-24490580D02*
X775222123Y-24442961D01*
X775174504Y-24395342D01*
X775126885Y-24300104D01*
X775126885Y-24014390D01*
X775174504Y-23919152D01*
X775222123Y-23871533D01*
X775317361Y-23823914D01*
X775460219Y-23823914D01*
X775555457Y-23871533D01*
X775603076Y-23919152D01*
X775650695Y-24014390D01*
X775650695Y-24300104D01*
X775603076Y-24395342D01*
X775555457Y-24442961D01*
X775460219Y-24490580D01*
X775317361Y-24490580D01*
X776079266Y-24490580D02*
X776079266Y-23823914D01*
X776079266Y-23919152D02*
X776126885Y-23871533D01*
X776222123Y-23823914D01*
X776364980Y-23823914D01*
X776460219Y-23871533D01*
X776507838Y-23966771D01*
X776507838Y-24490580D01*
X776507838Y-23966771D02*
X776555457Y-23871533D01*
X776650695Y-23823914D01*
X776793552Y-23823914D01*
X776888790Y-23871533D01*
X776936409Y-23966771D01*
X776936409Y-24490580D01*
X777841171Y-24490580D02*
X777841171Y-23966771D01*
X777793552Y-23871533D01*
X777698314Y-23823914D01*
X777507838Y-23823914D01*
X777412600Y-23871533D01*
X777841171Y-24442961D02*
X777745933Y-24490580D01*
X777507838Y-24490580D01*
X777412600Y-24442961D01*
X777364980Y-24347723D01*
X777364980Y-24252485D01*
X777412600Y-24157247D01*
X777507838Y-24109628D01*
X777745933Y-24109628D01*
X777841171Y-24062009D01*
X778269742Y-24442961D02*
X778364980Y-24490580D01*
X778555457Y-24490580D01*
X778650695Y-24442961D01*
X778698314Y-24347723D01*
X778698314Y-24300104D01*
X778650695Y-24204866D01*
X778555457Y-24157247D01*
X778412600Y-24157247D01*
X778317361Y-24109628D01*
X778269742Y-24014390D01*
X778269742Y-23966771D01*
X778317361Y-23871533D01*
X778412600Y-23823914D01*
X778555457Y-23823914D01*
X778650695Y-23871533D01*
X766997380Y-120260761D02*
X766997380Y-120070285D01*
X767045000Y-119975047D01*
X767140238Y-119879809D01*
X767330714Y-119832190D01*
X767664047Y-119832190D01*
X767854523Y-119879809D01*
X767949761Y-119975047D01*
X767997380Y-120070285D01*
X767997380Y-120260761D01*
X767949761Y-120356000D01*
X767854523Y-120451238D01*
X767664047Y-120498857D01*
X767330714Y-120498857D01*
X767140238Y-120451238D01*
X767045000Y-120356000D01*
X766997380Y-120260761D01*
X766997380Y-119403619D02*
X767806904Y-119403619D01*
X767902142Y-119356000D01*
X767949761Y-119308380D01*
X767997380Y-119213142D01*
X767997380Y-119022666D01*
X767949761Y-118927428D01*
X767902142Y-118879809D01*
X767806904Y-118832190D01*
X766997380Y-118832190D01*
X766997380Y-118498857D02*
X766997380Y-117927428D01*
X767997380Y-118213142D02*
X766997380Y-118213142D01*
X767997380Y-117594095D02*
X766997380Y-117594095D01*
X766997380Y-117213142D01*
X767045000Y-117117904D01*
X767092619Y-117070285D01*
X767187857Y-117022666D01*
X767330714Y-117022666D01*
X767425952Y-117070285D01*
X767473571Y-117117904D01*
X767521190Y-117213142D01*
X767521190Y-117594095D01*
X766997380Y-116594095D02*
X767806904Y-116594095D01*
X767902142Y-116546476D01*
X767949761Y-116498857D01*
X767997380Y-116403619D01*
X767997380Y-116213142D01*
X767949761Y-116117904D01*
X767902142Y-116070285D01*
X767806904Y-116022666D01*
X766997380Y-116022666D01*
X766997380Y-115689333D02*
X766997380Y-115117904D01*
X767997380Y-115403619D02*
X766997380Y-115403619D01*
X769083571Y-120117904D02*
X769131190Y-119975047D01*
X769178809Y-119927428D01*
X769274047Y-119879809D01*
X769416904Y-119879809D01*
X769512142Y-119927428D01*
X769559761Y-119975047D01*
X769607380Y-120070285D01*
X769607380Y-120451238D01*
X768607380Y-120451238D01*
X768607380Y-120117904D01*
X768655000Y-120022666D01*
X768702619Y-119975047D01*
X768797857Y-119927428D01*
X768893095Y-119927428D01*
X768988333Y-119975047D01*
X769035952Y-120022666D01*
X769083571Y-120117904D01*
X769083571Y-120451238D01*
X768607380Y-119451238D02*
X769416904Y-119451238D01*
X769512142Y-119403619D01*
X769559761Y-119356000D01*
X769607380Y-119260761D01*
X769607380Y-119070285D01*
X769559761Y-118975047D01*
X769512142Y-118927428D01*
X769416904Y-118879809D01*
X768607380Y-118879809D01*
X769083571Y-118070285D02*
X769083571Y-118403619D01*
X769607380Y-118403619D02*
X768607380Y-118403619D01*
X768607380Y-117927428D01*
X769083571Y-117213142D02*
X769083571Y-117546476D01*
X769607380Y-117546476D02*
X768607380Y-117546476D01*
X768607380Y-117070285D01*
X769083571Y-116689333D02*
X769083571Y-116356000D01*
X769607380Y-116213142D02*
X769607380Y-116689333D01*
X768607380Y-116689333D01*
X768607380Y-116213142D01*
X769607380Y-115213142D02*
X769131190Y-115546476D01*
X769607380Y-115784571D02*
X768607380Y-115784571D01*
X768607380Y-115403619D01*
X768655000Y-115308380D01*
X768702619Y-115260761D01*
X768797857Y-115213142D01*
X768940714Y-115213142D01*
X769035952Y-115260761D01*
X769083571Y-115308380D01*
X769131190Y-115403619D01*
X769131190Y-115784571D01*
X797590361Y-80106780D02*
X797114171Y-80106780D01*
X797114171Y-79106780D01*
X797923695Y-80106780D02*
X797923695Y-79106780D01*
X798399885Y-80106780D02*
X798399885Y-79106780D01*
X798733219Y-79821066D01*
X799066552Y-79106780D01*
X799066552Y-80106780D01*
X799542742Y-80106780D02*
X799542742Y-79106780D01*
X799876076Y-79106780D02*
X800447504Y-79106780D01*
X800161790Y-80106780D02*
X800161790Y-79106780D01*
X800733219Y-80059161D02*
X800876076Y-80106780D01*
X801114171Y-80106780D01*
X801209409Y-80059161D01*
X801257028Y-80011542D01*
X801304647Y-79916304D01*
X801304647Y-79821066D01*
X801257028Y-79725828D01*
X801209409Y-79678209D01*
X801114171Y-79630590D01*
X800923695Y-79582971D01*
X800828457Y-79535352D01*
X800780838Y-79487733D01*
X800733219Y-79392495D01*
X800733219Y-79297257D01*
X800780838Y-79202019D01*
X800828457Y-79154400D01*
X800923695Y-79106780D01*
X801161790Y-79106780D01*
X801304647Y-79154400D01*
X795373961Y-58808380D02*
X795421580Y-58665523D01*
X795421580Y-58427428D01*
X795373961Y-58332190D01*
X795326342Y-58284571D01*
X795231104Y-58236952D01*
X795135866Y-58236952D01*
X795040628Y-58284571D01*
X794993009Y-58332190D01*
X794945390Y-58427428D01*
X794897771Y-58617904D01*
X794850152Y-58713142D01*
X794802533Y-58760761D01*
X794707295Y-58808380D01*
X794612057Y-58808380D01*
X794516819Y-58760761D01*
X794469200Y-58713142D01*
X794421580Y-58617904D01*
X794421580Y-58379809D01*
X794469200Y-58236952D01*
X794421580Y-57808380D02*
X795231104Y-57808380D01*
X795326342Y-57760761D01*
X795373961Y-57713142D01*
X795421580Y-57617904D01*
X795421580Y-57427428D01*
X795373961Y-57332190D01*
X795326342Y-57284571D01*
X795231104Y-57236952D01*
X794421580Y-57236952D01*
X795421580Y-56760761D02*
X794421580Y-56760761D01*
X795135866Y-56427428D01*
X794421580Y-56094095D01*
X795421580Y-56094095D01*
X795040628Y-54856000D02*
X795040628Y-54094095D01*
X795421580Y-54475047D02*
X794659676Y-54475047D01*
X794469200Y-52332190D02*
X794421580Y-52427428D01*
X794421580Y-52570285D01*
X794469200Y-52713142D01*
X794564438Y-52808380D01*
X794659676Y-52856000D01*
X794850152Y-52903619D01*
X794993009Y-52903619D01*
X795183485Y-52856000D01*
X795278723Y-52808380D01*
X795373961Y-52713142D01*
X795421580Y-52570285D01*
X795421580Y-52475047D01*
X795373961Y-52332190D01*
X795326342Y-52284571D01*
X794993009Y-52284571D01*
X794993009Y-52475047D01*
X795135866Y-51903619D02*
X795135866Y-51427428D01*
X795421580Y-51998857D02*
X794421580Y-51665523D01*
X795421580Y-51332190D01*
X795421580Y-50998857D02*
X794421580Y-50998857D01*
X795421580Y-50522666D02*
X794421580Y-50522666D01*
X795421580Y-49951238D01*
X794421580Y-49951238D01*
X808244333Y-113879380D02*
X808577666Y-114879380D01*
X808911000Y-113879380D01*
X809196714Y-114831761D02*
X809339571Y-114879380D01*
X809577666Y-114879380D01*
X809672904Y-114831761D01*
X809720523Y-114784142D01*
X809768142Y-114688904D01*
X809768142Y-114593666D01*
X809720523Y-114498428D01*
X809672904Y-114450809D01*
X809577666Y-114403190D01*
X809387190Y-114355571D01*
X809291952Y-114307952D01*
X809244333Y-114260333D01*
X809196714Y-114165095D01*
X809196714Y-114069857D01*
X809244333Y-113974619D01*
X809291952Y-113927000D01*
X809387190Y-113879380D01*
X809625285Y-113879380D01*
X809768142Y-113927000D01*
X810149095Y-114831761D02*
X810291952Y-114879380D01*
X810530047Y-114879380D01*
X810625285Y-114831761D01*
X810672904Y-114784142D01*
X810720523Y-114688904D01*
X810720523Y-114593666D01*
X810672904Y-114498428D01*
X810625285Y-114450809D01*
X810530047Y-114403190D01*
X810339571Y-114355571D01*
X810244333Y-114307952D01*
X810196714Y-114260333D01*
X810149095Y-114165095D01*
X810149095Y-114069857D01*
X810196714Y-113974619D01*
X810244333Y-113927000D01*
X810339571Y-113879380D01*
X810577666Y-113879380D01*
X810720523Y-113927000D01*
X811911000Y-114498428D02*
X812672904Y-114498428D01*
X813672904Y-114879380D02*
X813101476Y-114879380D01*
X813387190Y-114879380D02*
X813387190Y-113879380D01*
X813291952Y-114022238D01*
X813196714Y-114117476D01*
X813101476Y-114165095D01*
X814577666Y-113879380D02*
X814101476Y-113879380D01*
X814053857Y-114355571D01*
X814101476Y-114307952D01*
X814196714Y-114260333D01*
X814434809Y-114260333D01*
X814530047Y-114307952D01*
X814577666Y-114355571D01*
X814625285Y-114450809D01*
X814625285Y-114688904D01*
X814577666Y-114784142D01*
X814530047Y-114831761D01*
X814434809Y-114879380D01*
X814196714Y-114879380D01*
X814101476Y-114831761D01*
X814053857Y-114784142D01*
X814911000Y-113879380D02*
X815244333Y-114879380D01*
X815577666Y-113879380D01*
D11*
X781189114Y-89532228D02*
X781439114Y-89532228D01*
X781546257Y-89925085D02*
X781189114Y-89925085D01*
X781189114Y-89175085D01*
X781546257Y-89175085D01*
X782296257Y-89925085D02*
X782046257Y-89567942D01*
X781867685Y-89925085D02*
X781867685Y-89175085D01*
X782153400Y-89175085D01*
X782224828Y-89210800D01*
X782260542Y-89246514D01*
X782296257Y-89317942D01*
X782296257Y-89425085D01*
X782260542Y-89496514D01*
X782224828Y-89532228D01*
X782153400Y-89567942D01*
X781867685Y-89567942D01*
X783046257Y-89925085D02*
X782796257Y-89567942D01*
X782617685Y-89925085D02*
X782617685Y-89175085D01*
X782903400Y-89175085D01*
X782974828Y-89210800D01*
X783010542Y-89246514D01*
X783046257Y-89317942D01*
X783046257Y-89425085D01*
X783010542Y-89496514D01*
X782974828Y-89532228D01*
X782903400Y-89567942D01*
X782617685Y-89567942D01*
X783939114Y-89532228D02*
X784510542Y-89532228D01*
X784510542Y-89746514D02*
X783939114Y-89746514D01*
X785439114Y-89925085D02*
X785439114Y-89175085D01*
X785796257Y-89925085D02*
X785796257Y-89175085D01*
X786224828Y-89925085D01*
X786224828Y-89175085D01*
X786546257Y-89246514D02*
X786581971Y-89210800D01*
X786653400Y-89175085D01*
X786831971Y-89175085D01*
X786903400Y-89210800D01*
X786939114Y-89246514D01*
X786974828Y-89317942D01*
X786974828Y-89389371D01*
X786939114Y-89496514D01*
X786510542Y-89925085D01*
X786974828Y-89925085D01*
X787867685Y-89639371D02*
X788439114Y-89639371D01*
X789367685Y-89925085D02*
X789367685Y-89175085D01*
X789724828Y-89925085D02*
X789724828Y-89175085D01*
X790153400Y-89925085D01*
X790153400Y-89175085D01*
X790903400Y-89925085D02*
X790474828Y-89925085D01*
X790689114Y-89925085D02*
X790689114Y-89175085D01*
X790617685Y-89282228D01*
X790546257Y-89353657D01*
X790474828Y-89389371D01*
D10*
X769386580Y-49799476D02*
X768386580Y-49799476D01*
X769386580Y-49323285D02*
X768386580Y-49323285D01*
X769386580Y-48751857D01*
X768386580Y-48751857D01*
X768386580Y-48418523D02*
X768386580Y-47847095D01*
X769386580Y-48132809D02*
X768386580Y-48132809D01*
X768862771Y-47513761D02*
X768862771Y-47180428D01*
X769386580Y-47037571D02*
X769386580Y-47513761D01*
X768386580Y-47513761D01*
X768386580Y-47037571D01*
X768434200Y-46085190D02*
X768386580Y-46180428D01*
X768386580Y-46323285D01*
X768434200Y-46466142D01*
X768529438Y-46561380D01*
X768624676Y-46609000D01*
X768815152Y-46656619D01*
X768958009Y-46656619D01*
X769148485Y-46609000D01*
X769243723Y-46561380D01*
X769338961Y-46466142D01*
X769386580Y-46323285D01*
X769386580Y-46228047D01*
X769338961Y-46085190D01*
X769291342Y-46037571D01*
X768958009Y-46037571D01*
X768958009Y-46228047D01*
X769386580Y-45037571D02*
X768910390Y-45370904D01*
X769386580Y-45609000D02*
X768386580Y-45609000D01*
X768386580Y-45228047D01*
X768434200Y-45132809D01*
X768481819Y-45085190D01*
X768577057Y-45037571D01*
X768719914Y-45037571D01*
X768815152Y-45085190D01*
X768862771Y-45132809D01*
X768910390Y-45228047D01*
X768910390Y-45609000D01*
X769100866Y-44656619D02*
X769100866Y-44180428D01*
X769386580Y-44751857D02*
X768386580Y-44418523D01*
X769386580Y-44085190D01*
X769386580Y-43275666D02*
X769386580Y-43751857D01*
X768386580Y-43751857D01*
%TO.C,C1*%
X803768733Y-105360742D02*
X803721114Y-105408361D01*
X803578257Y-105455980D01*
X803483019Y-105455980D01*
X803340161Y-105408361D01*
X803244923Y-105313123D01*
X803197304Y-105217885D01*
X803149685Y-105027409D01*
X803149685Y-104884552D01*
X803197304Y-104694076D01*
X803244923Y-104598838D01*
X803340161Y-104503600D01*
X803483019Y-104455980D01*
X803578257Y-104455980D01*
X803721114Y-104503600D01*
X803768733Y-104551219D01*
X804721114Y-105455980D02*
X804149685Y-105455980D01*
X804435400Y-105455980D02*
X804435400Y-104455980D01*
X804340161Y-104598838D01*
X804244923Y-104694076D01*
X804149685Y-104741695D01*
%TO.C,C2*%
X803667133Y-106808542D02*
X803619514Y-106856161D01*
X803476657Y-106903780D01*
X803381419Y-106903780D01*
X803238561Y-106856161D01*
X803143323Y-106760923D01*
X803095704Y-106665685D01*
X803048085Y-106475209D01*
X803048085Y-106332352D01*
X803095704Y-106141876D01*
X803143323Y-106046638D01*
X803238561Y-105951400D01*
X803381419Y-105903780D01*
X803476657Y-105903780D01*
X803619514Y-105951400D01*
X803667133Y-105999019D01*
X804048085Y-105999019D02*
X804095704Y-105951400D01*
X804190942Y-105903780D01*
X804429038Y-105903780D01*
X804524276Y-105951400D01*
X804571895Y-105999019D01*
X804619514Y-106094257D01*
X804619514Y-106189495D01*
X804571895Y-106332352D01*
X804000466Y-106903780D01*
X804619514Y-106903780D01*
%TO.C,C3*%
X794497733Y-104217742D02*
X794450114Y-104265361D01*
X794307257Y-104312980D01*
X794212019Y-104312980D01*
X794069161Y-104265361D01*
X793973923Y-104170123D01*
X793926304Y-104074885D01*
X793878685Y-103884409D01*
X793878685Y-103741552D01*
X793926304Y-103551076D01*
X793973923Y-103455838D01*
X794069161Y-103360600D01*
X794212019Y-103312980D01*
X794307257Y-103312980D01*
X794450114Y-103360600D01*
X794497733Y-103408219D01*
X794831066Y-103312980D02*
X795450114Y-103312980D01*
X795116780Y-103693933D01*
X795259638Y-103693933D01*
X795354876Y-103741552D01*
X795402495Y-103789171D01*
X795450114Y-103884409D01*
X795450114Y-104122504D01*
X795402495Y-104217742D01*
X795354876Y-104265361D01*
X795259638Y-104312980D01*
X794973923Y-104312980D01*
X794878685Y-104265361D01*
X794831066Y-104217742D01*
%TO.C,C6*%
X788290542Y-42432266D02*
X788338161Y-42479885D01*
X788385780Y-42622742D01*
X788385780Y-42717980D01*
X788338161Y-42860838D01*
X788242923Y-42956076D01*
X788147685Y-43003695D01*
X787957209Y-43051314D01*
X787814352Y-43051314D01*
X787623876Y-43003695D01*
X787528638Y-42956076D01*
X787433400Y-42860838D01*
X787385780Y-42717980D01*
X787385780Y-42622742D01*
X787433400Y-42479885D01*
X787481019Y-42432266D01*
X787385780Y-41575123D02*
X787385780Y-41765600D01*
X787433400Y-41860838D01*
X787481019Y-41908457D01*
X787623876Y-42003695D01*
X787814352Y-42051314D01*
X788195304Y-42051314D01*
X788290542Y-42003695D01*
X788338161Y-41956076D01*
X788385780Y-41860838D01*
X788385780Y-41670361D01*
X788338161Y-41575123D01*
X788290542Y-41527504D01*
X788195304Y-41479885D01*
X787957209Y-41479885D01*
X787861971Y-41527504D01*
X787814352Y-41575123D01*
X787766733Y-41670361D01*
X787766733Y-41860838D01*
X787814352Y-41956076D01*
X787861971Y-42003695D01*
X787957209Y-42051314D01*
%TO.C,C7*%
X770032142Y-55412666D02*
X770079761Y-55460285D01*
X770127380Y-55603142D01*
X770127380Y-55698380D01*
X770079761Y-55841238D01*
X769984523Y-55936476D01*
X769889285Y-55984095D01*
X769698809Y-56031714D01*
X769555952Y-56031714D01*
X769365476Y-55984095D01*
X769270238Y-55936476D01*
X769175000Y-55841238D01*
X769127380Y-55698380D01*
X769127380Y-55603142D01*
X769175000Y-55460285D01*
X769222619Y-55412666D01*
X769127380Y-55079333D02*
X769127380Y-54412666D01*
X770127380Y-54841238D01*
%TO.C,C8*%
X781860142Y-38266666D02*
X781907761Y-38314285D01*
X781955380Y-38457142D01*
X781955380Y-38552380D01*
X781907761Y-38695238D01*
X781812523Y-38790476D01*
X781717285Y-38838095D01*
X781526809Y-38885714D01*
X781383952Y-38885714D01*
X781193476Y-38838095D01*
X781098238Y-38790476D01*
X781003000Y-38695238D01*
X780955380Y-38552380D01*
X780955380Y-38457142D01*
X781003000Y-38314285D01*
X781050619Y-38266666D01*
X781383952Y-37695238D02*
X781336333Y-37790476D01*
X781288714Y-37838095D01*
X781193476Y-37885714D01*
X781145857Y-37885714D01*
X781050619Y-37838095D01*
X781003000Y-37790476D01*
X780955380Y-37695238D01*
X780955380Y-37504761D01*
X781003000Y-37409523D01*
X781050619Y-37361904D01*
X781145857Y-37314285D01*
X781193476Y-37314285D01*
X781288714Y-37361904D01*
X781336333Y-37409523D01*
X781383952Y-37504761D01*
X781383952Y-37695238D01*
X781431571Y-37790476D01*
X781479190Y-37838095D01*
X781574428Y-37885714D01*
X781764904Y-37885714D01*
X781860142Y-37838095D01*
X781907761Y-37790476D01*
X781955380Y-37695238D01*
X781955380Y-37504761D01*
X781907761Y-37409523D01*
X781860142Y-37361904D01*
X781764904Y-37314285D01*
X781574428Y-37314285D01*
X781479190Y-37361904D01*
X781431571Y-37409523D01*
X781383952Y-37504761D01*
%TO.C,C9*%
X770032142Y-76709166D02*
X770079761Y-76756785D01*
X770127380Y-76899642D01*
X770127380Y-76994880D01*
X770079761Y-77137738D01*
X769984523Y-77232976D01*
X769889285Y-77280595D01*
X769698809Y-77328214D01*
X769555952Y-77328214D01*
X769365476Y-77280595D01*
X769270238Y-77232976D01*
X769175000Y-77137738D01*
X769127380Y-76994880D01*
X769127380Y-76899642D01*
X769175000Y-76756785D01*
X769222619Y-76709166D01*
X770127380Y-76232976D02*
X770127380Y-76042500D01*
X770079761Y-75947261D01*
X770032142Y-75899642D01*
X769889285Y-75804404D01*
X769698809Y-75756785D01*
X769317857Y-75756785D01*
X769222619Y-75804404D01*
X769175000Y-75852023D01*
X769127380Y-75947261D01*
X769127380Y-76137738D01*
X769175000Y-76232976D01*
X769222619Y-76280595D01*
X769317857Y-76328214D01*
X769555952Y-76328214D01*
X769651190Y-76280595D01*
X769698809Y-76232976D01*
X769746428Y-76137738D01*
X769746428Y-75947261D01*
X769698809Y-75852023D01*
X769651190Y-75804404D01*
X769555952Y-75756785D01*
%TO.C,C10*%
X781987142Y-60332857D02*
X782034761Y-60380476D01*
X782082380Y-60523333D01*
X782082380Y-60618571D01*
X782034761Y-60761428D01*
X781939523Y-60856666D01*
X781844285Y-60904285D01*
X781653809Y-60951904D01*
X781510952Y-60951904D01*
X781320476Y-60904285D01*
X781225238Y-60856666D01*
X781130000Y-60761428D01*
X781082380Y-60618571D01*
X781082380Y-60523333D01*
X781130000Y-60380476D01*
X781177619Y-60332857D01*
X782082380Y-59380476D02*
X782082380Y-59951904D01*
X782082380Y-59666190D02*
X781082380Y-59666190D01*
X781225238Y-59761428D01*
X781320476Y-59856666D01*
X781368095Y-59951904D01*
X781082380Y-58761428D02*
X781082380Y-58666190D01*
X781130000Y-58570952D01*
X781177619Y-58523333D01*
X781272857Y-58475714D01*
X781463333Y-58428095D01*
X781701428Y-58428095D01*
X781891904Y-58475714D01*
X781987142Y-58523333D01*
X782034761Y-58570952D01*
X782082380Y-58666190D01*
X782082380Y-58761428D01*
X782034761Y-58856666D01*
X781987142Y-58904285D01*
X781891904Y-58951904D01*
X781701428Y-58999523D01*
X781463333Y-58999523D01*
X781272857Y-58951904D01*
X781177619Y-58904285D01*
X781130000Y-58856666D01*
X781082380Y-58761428D01*
%TO.C,C11*%
X793996142Y-60732942D02*
X793948523Y-60780561D01*
X793805666Y-60828180D01*
X793710428Y-60828180D01*
X793567571Y-60780561D01*
X793472333Y-60685323D01*
X793424714Y-60590085D01*
X793377095Y-60399609D01*
X793377095Y-60256752D01*
X793424714Y-60066276D01*
X793472333Y-59971038D01*
X793567571Y-59875800D01*
X793710428Y-59828180D01*
X793805666Y-59828180D01*
X793948523Y-59875800D01*
X793996142Y-59923419D01*
X794948523Y-60828180D02*
X794377095Y-60828180D01*
X794662809Y-60828180D02*
X794662809Y-59828180D01*
X794567571Y-59971038D01*
X794472333Y-60066276D01*
X794377095Y-60113895D01*
X795900904Y-60828180D02*
X795329476Y-60828180D01*
X795615190Y-60828180D02*
X795615190Y-59828180D01*
X795519952Y-59971038D01*
X795424714Y-60066276D01*
X795329476Y-60113895D01*
%TO.C,C12*%
X811158642Y-52458857D02*
X811206261Y-52506476D01*
X811253880Y-52649333D01*
X811253880Y-52744571D01*
X811206261Y-52887428D01*
X811111023Y-52982666D01*
X811015785Y-53030285D01*
X810825309Y-53077904D01*
X810682452Y-53077904D01*
X810491976Y-53030285D01*
X810396738Y-52982666D01*
X810301500Y-52887428D01*
X810253880Y-52744571D01*
X810253880Y-52649333D01*
X810301500Y-52506476D01*
X810349119Y-52458857D01*
X811253880Y-51506476D02*
X811253880Y-52077904D01*
X811253880Y-51792190D02*
X810253880Y-51792190D01*
X810396738Y-51887428D01*
X810491976Y-51982666D01*
X810539595Y-52077904D01*
X810349119Y-51125523D02*
X810301500Y-51077904D01*
X810253880Y-50982666D01*
X810253880Y-50744571D01*
X810301500Y-50649333D01*
X810349119Y-50601714D01*
X810444357Y-50554095D01*
X810539595Y-50554095D01*
X810682452Y-50601714D01*
X811253880Y-51173142D01*
X811253880Y-50554095D01*
%TO.C,C16*%
X769905142Y-127731357D02*
X769952761Y-127778976D01*
X770000380Y-127921833D01*
X770000380Y-128017071D01*
X769952761Y-128159928D01*
X769857523Y-128255166D01*
X769762285Y-128302785D01*
X769571809Y-128350404D01*
X769428952Y-128350404D01*
X769238476Y-128302785D01*
X769143238Y-128255166D01*
X769048000Y-128159928D01*
X769000380Y-128017071D01*
X769000380Y-127921833D01*
X769048000Y-127778976D01*
X769095619Y-127731357D01*
X770000380Y-126778976D02*
X770000380Y-127350404D01*
X770000380Y-127064690D02*
X769000380Y-127064690D01*
X769143238Y-127159928D01*
X769238476Y-127255166D01*
X769286095Y-127350404D01*
X769000380Y-125921833D02*
X769000380Y-126112309D01*
X769048000Y-126207547D01*
X769095619Y-126255166D01*
X769238476Y-126350404D01*
X769428952Y-126398023D01*
X769809904Y-126398023D01*
X769905142Y-126350404D01*
X769952761Y-126302785D01*
X770000380Y-126207547D01*
X770000380Y-126017071D01*
X769952761Y-125921833D01*
X769905142Y-125874214D01*
X769809904Y-125826595D01*
X769571809Y-125826595D01*
X769476571Y-125874214D01*
X769428952Y-125921833D01*
X769381333Y-126017071D01*
X769381333Y-126207547D01*
X769428952Y-126302785D01*
X769476571Y-126350404D01*
X769571809Y-126398023D01*
%TO.C,C18*%
X811052642Y-88059142D02*
X811005023Y-88106761D01*
X810862166Y-88154380D01*
X810766928Y-88154380D01*
X810624071Y-88106761D01*
X810528833Y-88011523D01*
X810481214Y-87916285D01*
X810433595Y-87725809D01*
X810433595Y-87582952D01*
X810481214Y-87392476D01*
X810528833Y-87297238D01*
X810624071Y-87202000D01*
X810766928Y-87154380D01*
X810862166Y-87154380D01*
X811005023Y-87202000D01*
X811052642Y-87249619D01*
X812005023Y-88154380D02*
X811433595Y-88154380D01*
X811719309Y-88154380D02*
X811719309Y-87154380D01*
X811624071Y-87297238D01*
X811528833Y-87392476D01*
X811433595Y-87440095D01*
X812576452Y-87582952D02*
X812481214Y-87535333D01*
X812433595Y-87487714D01*
X812385976Y-87392476D01*
X812385976Y-87344857D01*
X812433595Y-87249619D01*
X812481214Y-87202000D01*
X812576452Y-87154380D01*
X812766928Y-87154380D01*
X812862166Y-87202000D01*
X812909785Y-87249619D01*
X812957404Y-87344857D01*
X812957404Y-87392476D01*
X812909785Y-87487714D01*
X812862166Y-87535333D01*
X812766928Y-87582952D01*
X812576452Y-87582952D01*
X812481214Y-87630571D01*
X812433595Y-87678190D01*
X812385976Y-87773428D01*
X812385976Y-87963904D01*
X812433595Y-88059142D01*
X812481214Y-88106761D01*
X812576452Y-88154380D01*
X812766928Y-88154380D01*
X812862166Y-88106761D01*
X812909785Y-88059142D01*
X812957404Y-87963904D01*
X812957404Y-87773428D01*
X812909785Y-87678190D01*
X812862166Y-87630571D01*
X812766928Y-87582952D01*
%TO.C,C20*%
X795808942Y-25585657D02*
X795856561Y-25633276D01*
X795904180Y-25776133D01*
X795904180Y-25871371D01*
X795856561Y-26014228D01*
X795761323Y-26109466D01*
X795666085Y-26157085D01*
X795475609Y-26204704D01*
X795332752Y-26204704D01*
X795142276Y-26157085D01*
X795047038Y-26109466D01*
X794951800Y-26014228D01*
X794904180Y-25871371D01*
X794904180Y-25776133D01*
X794951800Y-25633276D01*
X794999419Y-25585657D01*
X794999419Y-25204704D02*
X794951800Y-25157085D01*
X794904180Y-25061847D01*
X794904180Y-24823752D01*
X794951800Y-24728514D01*
X794999419Y-24680895D01*
X795094657Y-24633276D01*
X795189895Y-24633276D01*
X795332752Y-24680895D01*
X795904180Y-25252323D01*
X795904180Y-24633276D01*
X794904180Y-24014228D02*
X794904180Y-23918990D01*
X794951800Y-23823752D01*
X794999419Y-23776133D01*
X795094657Y-23728514D01*
X795285133Y-23680895D01*
X795523228Y-23680895D01*
X795713704Y-23728514D01*
X795808942Y-23776133D01*
X795856561Y-23823752D01*
X795904180Y-23918990D01*
X795904180Y-24014228D01*
X795856561Y-24109466D01*
X795808942Y-24157085D01*
X795713704Y-24204704D01*
X795523228Y-24252323D01*
X795285133Y-24252323D01*
X795094657Y-24204704D01*
X794999419Y-24157085D01*
X794951800Y-24109466D01*
X794904180Y-24014228D01*
%TO.C,D3*%
X801901904Y-121827180D02*
X801901904Y-120827180D01*
X802140000Y-120827180D01*
X802282857Y-120874800D01*
X802378095Y-120970038D01*
X802425714Y-121065276D01*
X802473333Y-121255752D01*
X802473333Y-121398609D01*
X802425714Y-121589085D01*
X802378095Y-121684323D01*
X802282857Y-121779561D01*
X802140000Y-121827180D01*
X801901904Y-121827180D01*
X802806666Y-120827180D02*
X803425714Y-120827180D01*
X803092380Y-121208133D01*
X803235238Y-121208133D01*
X803330476Y-121255752D01*
X803378095Y-121303371D01*
X803425714Y-121398609D01*
X803425714Y-121636704D01*
X803378095Y-121731942D01*
X803330476Y-121779561D01*
X803235238Y-121827180D01*
X802949523Y-121827180D01*
X802854285Y-121779561D01*
X802806666Y-121731942D01*
%TO.C,P1*%
X808680380Y-113006095D02*
X807680380Y-113006095D01*
X807680380Y-112625142D01*
X807728000Y-112529904D01*
X807775619Y-112482285D01*
X807870857Y-112434666D01*
X808013714Y-112434666D01*
X808108952Y-112482285D01*
X808156571Y-112529904D01*
X808204190Y-112625142D01*
X808204190Y-113006095D01*
X808680380Y-111482285D02*
X808680380Y-112053714D01*
X808680380Y-111768000D02*
X807680380Y-111768000D01*
X807823238Y-111863238D01*
X807918476Y-111958476D01*
X807966095Y-112053714D01*
%TO.C,R1*%
X799539880Y-43753666D02*
X799063690Y-44087000D01*
X799539880Y-44325095D02*
X798539880Y-44325095D01*
X798539880Y-43944142D01*
X798587500Y-43848904D01*
X798635119Y-43801285D01*
X798730357Y-43753666D01*
X798873214Y-43753666D01*
X798968452Y-43801285D01*
X799016071Y-43848904D01*
X799063690Y-43944142D01*
X799063690Y-44325095D01*
X799539880Y-42801285D02*
X799539880Y-43372714D01*
X799539880Y-43087000D02*
X798539880Y-43087000D01*
X798682738Y-43182238D01*
X798777976Y-43277476D01*
X798825595Y-43372714D01*
%TO.C,R2*%
X791411833Y-48077380D02*
X791078500Y-47601190D01*
X790840404Y-48077380D02*
X790840404Y-47077380D01*
X791221357Y-47077380D01*
X791316595Y-47125000D01*
X791364214Y-47172619D01*
X791411833Y-47267857D01*
X791411833Y-47410714D01*
X791364214Y-47505952D01*
X791316595Y-47553571D01*
X791221357Y-47601190D01*
X790840404Y-47601190D01*
X791792785Y-47172619D02*
X791840404Y-47125000D01*
X791935642Y-47077380D01*
X792173738Y-47077380D01*
X792268976Y-47125000D01*
X792316595Y-47172619D01*
X792364214Y-47267857D01*
X792364214Y-47363095D01*
X792316595Y-47505952D01*
X791745166Y-48077380D01*
X792364214Y-48077380D01*
%TO.C,R6*%
X788689380Y-56427666D02*
X788213190Y-56761000D01*
X788689380Y-56999095D02*
X787689380Y-56999095D01*
X787689380Y-56618142D01*
X787737000Y-56522904D01*
X787784619Y-56475285D01*
X787879857Y-56427666D01*
X788022714Y-56427666D01*
X788117952Y-56475285D01*
X788165571Y-56522904D01*
X788213190Y-56618142D01*
X788213190Y-56999095D01*
X787689380Y-55570523D02*
X787689380Y-55761000D01*
X787737000Y-55856238D01*
X787784619Y-55903857D01*
X787927476Y-55999095D01*
X788117952Y-56046714D01*
X788498904Y-56046714D01*
X788594142Y-55999095D01*
X788641761Y-55951476D01*
X788689380Y-55856238D01*
X788689380Y-55665761D01*
X788641761Y-55570523D01*
X788594142Y-55522904D01*
X788498904Y-55475285D01*
X788260809Y-55475285D01*
X788165571Y-55522904D01*
X788117952Y-55570523D01*
X788070333Y-55665761D01*
X788070333Y-55856238D01*
X788117952Y-55951476D01*
X788165571Y-55999095D01*
X788260809Y-56046714D01*
%TO.C,R7*%
X786979333Y-33133380D02*
X786646000Y-32657190D01*
X786407904Y-33133380D02*
X786407904Y-32133380D01*
X786788857Y-32133380D01*
X786884095Y-32181000D01*
X786931714Y-32228619D01*
X786979333Y-32323857D01*
X786979333Y-32466714D01*
X786931714Y-32561952D01*
X786884095Y-32609571D01*
X786788857Y-32657190D01*
X786407904Y-32657190D01*
X787312666Y-32133380D02*
X787979333Y-32133380D01*
X787550761Y-33133380D01*
%TO.C,R8*%
X797894180Y-68619066D02*
X797417990Y-68952400D01*
X797894180Y-69190495D02*
X796894180Y-69190495D01*
X796894180Y-68809542D01*
X796941800Y-68714304D01*
X796989419Y-68666685D01*
X797084657Y-68619066D01*
X797227514Y-68619066D01*
X797322752Y-68666685D01*
X797370371Y-68714304D01*
X797417990Y-68809542D01*
X797417990Y-69190495D01*
X797322752Y-68047638D02*
X797275133Y-68142876D01*
X797227514Y-68190495D01*
X797132276Y-68238114D01*
X797084657Y-68238114D01*
X796989419Y-68190495D01*
X796941800Y-68142876D01*
X796894180Y-68047638D01*
X796894180Y-67857161D01*
X796941800Y-67761923D01*
X796989419Y-67714304D01*
X797084657Y-67666685D01*
X797132276Y-67666685D01*
X797227514Y-67714304D01*
X797275133Y-67761923D01*
X797322752Y-67857161D01*
X797322752Y-68047638D01*
X797370371Y-68142876D01*
X797417990Y-68190495D01*
X797513228Y-68238114D01*
X797703704Y-68238114D01*
X797798942Y-68190495D01*
X797846561Y-68142876D01*
X797894180Y-68047638D01*
X797894180Y-67857161D01*
X797846561Y-67761923D01*
X797798942Y-67714304D01*
X797703704Y-67666685D01*
X797513228Y-67666685D01*
X797417990Y-67714304D01*
X797370371Y-67761923D01*
X797322752Y-67857161D01*
%TO.C,R9*%
X801291833Y-28561380D02*
X800958500Y-28085190D01*
X800720404Y-28561380D02*
X800720404Y-27561380D01*
X801101357Y-27561380D01*
X801196595Y-27609000D01*
X801244214Y-27656619D01*
X801291833Y-27751857D01*
X801291833Y-27894714D01*
X801244214Y-27989952D01*
X801196595Y-28037571D01*
X801101357Y-28085190D01*
X800720404Y-28085190D01*
X801768023Y-28561380D02*
X801958500Y-28561380D01*
X802053738Y-28513761D01*
X802101357Y-28466142D01*
X802196595Y-28323285D01*
X802244214Y-28132809D01*
X802244214Y-27751857D01*
X802196595Y-27656619D01*
X802148976Y-27609000D01*
X802053738Y-27561380D01*
X801863261Y-27561380D01*
X801768023Y-27609000D01*
X801720404Y-27656619D01*
X801672785Y-27751857D01*
X801672785Y-27989952D01*
X801720404Y-28085190D01*
X801768023Y-28132809D01*
X801863261Y-28180428D01*
X802053738Y-28180428D01*
X802148976Y-28132809D01*
X802196595Y-28085190D01*
X802244214Y-27989952D01*
%TO.C,R10*%
X800841642Y-21492380D02*
X800508309Y-21016190D01*
X800270214Y-21492380D02*
X800270214Y-20492380D01*
X800651166Y-20492380D01*
X800746404Y-20540000D01*
X800794023Y-20587619D01*
X800841642Y-20682857D01*
X800841642Y-20825714D01*
X800794023Y-20920952D01*
X800746404Y-20968571D01*
X800651166Y-21016190D01*
X800270214Y-21016190D01*
X801794023Y-21492380D02*
X801222595Y-21492380D01*
X801508309Y-21492380D02*
X801508309Y-20492380D01*
X801413071Y-20635238D01*
X801317833Y-20730476D01*
X801222595Y-20778095D01*
X802413071Y-20492380D02*
X802508309Y-20492380D01*
X802603547Y-20540000D01*
X802651166Y-20587619D01*
X802698785Y-20682857D01*
X802746404Y-20873333D01*
X802746404Y-21111428D01*
X802698785Y-21301904D01*
X802651166Y-21397142D01*
X802603547Y-21444761D01*
X802508309Y-21492380D01*
X802413071Y-21492380D01*
X802317833Y-21444761D01*
X802270214Y-21397142D01*
X802222595Y-21301904D01*
X802174976Y-21111428D01*
X802174976Y-20873333D01*
X802222595Y-20682857D01*
X802270214Y-20587619D01*
X802317833Y-20540000D01*
X802413071Y-20492380D01*
%TO.C,R12*%
X795899880Y-38260857D02*
X795423690Y-38594190D01*
X795899880Y-38832285D02*
X794899880Y-38832285D01*
X794899880Y-38451333D01*
X794947500Y-38356095D01*
X794995119Y-38308476D01*
X795090357Y-38260857D01*
X795233214Y-38260857D01*
X795328452Y-38308476D01*
X795376071Y-38356095D01*
X795423690Y-38451333D01*
X795423690Y-38832285D01*
X795899880Y-37308476D02*
X795899880Y-37879904D01*
X795899880Y-37594190D02*
X794899880Y-37594190D01*
X795042738Y-37689428D01*
X795137976Y-37784666D01*
X795185595Y-37879904D01*
X794995119Y-36927523D02*
X794947500Y-36879904D01*
X794899880Y-36784666D01*
X794899880Y-36546571D01*
X794947500Y-36451333D01*
X794995119Y-36403714D01*
X795090357Y-36356095D01*
X795185595Y-36356095D01*
X795328452Y-36403714D01*
X795899880Y-36975142D01*
X795899880Y-36356095D01*
%TO.C,R13*%
X794967880Y-33053857D02*
X794491690Y-33387190D01*
X794967880Y-33625285D02*
X793967880Y-33625285D01*
X793967880Y-33244333D01*
X794015500Y-33149095D01*
X794063119Y-33101476D01*
X794158357Y-33053857D01*
X794301214Y-33053857D01*
X794396452Y-33101476D01*
X794444071Y-33149095D01*
X794491690Y-33244333D01*
X794491690Y-33625285D01*
X794967880Y-32101476D02*
X794967880Y-32672904D01*
X794967880Y-32387190D02*
X793967880Y-32387190D01*
X794110738Y-32482428D01*
X794205976Y-32577666D01*
X794253595Y-32672904D01*
X793967880Y-31768142D02*
X793967880Y-31149095D01*
X794348833Y-31482428D01*
X794348833Y-31339571D01*
X794396452Y-31244333D01*
X794444071Y-31196714D01*
X794539309Y-31149095D01*
X794777404Y-31149095D01*
X794872642Y-31196714D01*
X794920261Y-31244333D01*
X794967880Y-31339571D01*
X794967880Y-31625285D01*
X794920261Y-31720523D01*
X794872642Y-31768142D01*
%TO.C,RVGAIN1*%
X790570180Y-71830914D02*
X790093990Y-72164247D01*
X790570180Y-72402342D02*
X789570180Y-72402342D01*
X789570180Y-72021390D01*
X789617800Y-71926152D01*
X789665419Y-71878533D01*
X789760657Y-71830914D01*
X789903514Y-71830914D01*
X789998752Y-71878533D01*
X790046371Y-71926152D01*
X790093990Y-72021390D01*
X790093990Y-72402342D01*
X789570180Y-71545200D02*
X790570180Y-71211866D01*
X789570180Y-70878533D01*
X789617800Y-70021390D02*
X789570180Y-70116628D01*
X789570180Y-70259485D01*
X789617800Y-70402342D01*
X789713038Y-70497580D01*
X789808276Y-70545200D01*
X789998752Y-70592819D01*
X790141609Y-70592819D01*
X790332085Y-70545200D01*
X790427323Y-70497580D01*
X790522561Y-70402342D01*
X790570180Y-70259485D01*
X790570180Y-70164247D01*
X790522561Y-70021390D01*
X790474942Y-69973771D01*
X790141609Y-69973771D01*
X790141609Y-70164247D01*
X790284466Y-69592819D02*
X790284466Y-69116628D01*
X790570180Y-69688057D02*
X789570180Y-69354723D01*
X790570180Y-69021390D01*
X790570180Y-68688057D02*
X789570180Y-68688057D01*
X790570180Y-68211866D02*
X789570180Y-68211866D01*
X790570180Y-67640438D01*
X789570180Y-67640438D01*
X790570180Y-66640438D02*
X790570180Y-67211866D01*
X790570180Y-66926152D02*
X789570180Y-66926152D01*
X789713038Y-67021390D01*
X789808276Y-67116628D01*
X789855895Y-67211866D01*
%TO.C,RVULIM*%
X805090857Y-83995380D02*
X804757523Y-83519190D01*
X804519428Y-83995380D02*
X804519428Y-82995380D01*
X804900380Y-82995380D01*
X804995619Y-83043000D01*
X805043238Y-83090619D01*
X805090857Y-83185857D01*
X805090857Y-83328714D01*
X805043238Y-83423952D01*
X804995619Y-83471571D01*
X804900380Y-83519190D01*
X804519428Y-83519190D01*
X805376571Y-82995380D02*
X805709904Y-83995380D01*
X806043238Y-82995380D01*
X806376571Y-82995380D02*
X806376571Y-83804904D01*
X806424190Y-83900142D01*
X806471809Y-83947761D01*
X806567047Y-83995380D01*
X806757523Y-83995380D01*
X806852761Y-83947761D01*
X806900380Y-83900142D01*
X806948000Y-83804904D01*
X806948000Y-82995380D01*
X807900380Y-83995380D02*
X807424190Y-83995380D01*
X807424190Y-82995380D01*
X808233714Y-83995380D02*
X808233714Y-82995380D01*
X808709904Y-83995380D02*
X808709904Y-82995380D01*
X809043238Y-83709666D01*
X809376571Y-82995380D01*
X809376571Y-83995380D01*
%TO.C,U2*%
X774649295Y-39812980D02*
X774649295Y-40622504D01*
X774696914Y-40717742D01*
X774744533Y-40765361D01*
X774839771Y-40812980D01*
X775030247Y-40812980D01*
X775125485Y-40765361D01*
X775173104Y-40717742D01*
X775220723Y-40622504D01*
X775220723Y-39812980D01*
X775649295Y-39908219D02*
X775696914Y-39860600D01*
X775792152Y-39812980D01*
X776030247Y-39812980D01*
X776125485Y-39860600D01*
X776173104Y-39908219D01*
X776220723Y-40003457D01*
X776220723Y-40098695D01*
X776173104Y-40241552D01*
X775601676Y-40812980D01*
X776220723Y-40812980D01*
%TO.C,U3*%
X774623895Y-61453780D02*
X774623895Y-62263304D01*
X774671514Y-62358542D01*
X774719133Y-62406161D01*
X774814371Y-62453780D01*
X775004847Y-62453780D01*
X775100085Y-62406161D01*
X775147704Y-62358542D01*
X775195323Y-62263304D01*
X775195323Y-61453780D01*
X775576276Y-61453780D02*
X776195323Y-61453780D01*
X775861990Y-61834733D01*
X776004847Y-61834733D01*
X776100085Y-61882352D01*
X776147704Y-61929971D01*
X776195323Y-62025209D01*
X776195323Y-62263304D01*
X776147704Y-62358542D01*
X776100085Y-62406161D01*
X776004847Y-62453780D01*
X775719133Y-62453780D01*
X775623895Y-62406161D01*
X775576276Y-62358542D01*
%TO.C,U4*%
X800452595Y-47932380D02*
X800452595Y-48741904D01*
X800500214Y-48837142D01*
X800547833Y-48884761D01*
X800643071Y-48932380D01*
X800833547Y-48932380D01*
X800928785Y-48884761D01*
X800976404Y-48837142D01*
X801024023Y-48741904D01*
X801024023Y-47932380D01*
X801928785Y-48265714D02*
X801928785Y-48932380D01*
X801690690Y-47884761D02*
X801452595Y-48599047D01*
X802071642Y-48599047D01*
%TO.C,U6*%
X774559594Y-110660380D02*
X774559594Y-111469904D01*
X774607213Y-111565142D01*
X774654832Y-111612761D01*
X774750070Y-111660380D01*
X774940546Y-111660380D01*
X775035784Y-111612761D01*
X775083403Y-111565142D01*
X775131022Y-111469904D01*
X775131022Y-110660380D01*
X776035784Y-110660380D02*
X775845308Y-110660380D01*
X775750070Y-110708000D01*
X775702451Y-110755619D01*
X775607213Y-110898476D01*
X775559594Y-111088952D01*
X775559594Y-111469904D01*
X775607213Y-111565142D01*
X775654832Y-111612761D01*
X775750070Y-111660380D01*
X775940546Y-111660380D01*
X776035784Y-111612761D01*
X776083403Y-111565142D01*
X776131022Y-111469904D01*
X776131022Y-111231809D01*
X776083403Y-111136571D01*
X776035784Y-111088952D01*
X775940546Y-111041333D01*
X775750070Y-111041333D01*
X775654832Y-111088952D01*
X775607213Y-111136571D01*
X775559594Y-111231809D01*
%TO.C,U7*%
X799045595Y-34374380D02*
X799045595Y-35183904D01*
X799093214Y-35279142D01*
X799140833Y-35326761D01*
X799236071Y-35374380D01*
X799426547Y-35374380D01*
X799521785Y-35326761D01*
X799569404Y-35279142D01*
X799617023Y-35183904D01*
X799617023Y-34374380D01*
X799997976Y-34374380D02*
X800664642Y-34374380D01*
X800236071Y-35374380D01*
%TO.C,R5*%
X796834533Y-116987580D02*
X796501200Y-116511390D01*
X796263104Y-116987580D02*
X796263104Y-115987580D01*
X796644057Y-115987580D01*
X796739295Y-116035200D01*
X796786914Y-116082819D01*
X796834533Y-116178057D01*
X796834533Y-116320914D01*
X796786914Y-116416152D01*
X796739295Y-116463771D01*
X796644057Y-116511390D01*
X796263104Y-116511390D01*
X797739295Y-115987580D02*
X797263104Y-115987580D01*
X797215485Y-116463771D01*
X797263104Y-116416152D01*
X797358342Y-116368533D01*
X797596438Y-116368533D01*
X797691676Y-116416152D01*
X797739295Y-116463771D01*
X797786914Y-116559009D01*
X797786914Y-116797104D01*
X797739295Y-116892342D01*
X797691676Y-116939961D01*
X797596438Y-116987580D01*
X797358342Y-116987580D01*
X797263104Y-116939961D01*
X797215485Y-116892342D01*
%TO.C,D1*%
X802409904Y-88424380D02*
X802409904Y-87424380D01*
X802648000Y-87424380D01*
X802790857Y-87472000D01*
X802886095Y-87567238D01*
X802933714Y-87662476D01*
X802981333Y-87852952D01*
X802981333Y-87995809D01*
X802933714Y-88186285D01*
X802886095Y-88281523D01*
X802790857Y-88376761D01*
X802648000Y-88424380D01*
X802409904Y-88424380D01*
X803933714Y-88424380D02*
X803362285Y-88424380D01*
X803648000Y-88424380D02*
X803648000Y-87424380D01*
X803552761Y-87567238D01*
X803457523Y-87662476D01*
X803362285Y-87710095D01*
X806696095Y-88104380D02*
X806696095Y-87104380D01*
X807267523Y-88104380D02*
X806838952Y-87532952D01*
X807267523Y-87104380D02*
X806696095Y-87675809D01*
%TO.C,C5*%
X781987142Y-79795666D02*
X782034761Y-79843285D01*
X782082380Y-79986142D01*
X782082380Y-80081380D01*
X782034761Y-80224238D01*
X781939523Y-80319476D01*
X781844285Y-80367095D01*
X781653809Y-80414714D01*
X781510952Y-80414714D01*
X781320476Y-80367095D01*
X781225238Y-80319476D01*
X781130000Y-80224238D01*
X781082380Y-80081380D01*
X781082380Y-79986142D01*
X781130000Y-79843285D01*
X781177619Y-79795666D01*
X781082380Y-78890904D02*
X781082380Y-79367095D01*
X781558571Y-79414714D01*
X781510952Y-79367095D01*
X781463333Y-79271857D01*
X781463333Y-79033761D01*
X781510952Y-78938523D01*
X781558571Y-78890904D01*
X781653809Y-78843285D01*
X781891904Y-78843285D01*
X781987142Y-78890904D01*
X782034761Y-78938523D01*
X782082380Y-79033761D01*
X782082380Y-79271857D01*
X782034761Y-79367095D01*
X781987142Y-79414714D01*
%TO.C,C4*%
X765922733Y-95835742D02*
X765875114Y-95883361D01*
X765732257Y-95930980D01*
X765637019Y-95930980D01*
X765494161Y-95883361D01*
X765398923Y-95788123D01*
X765351304Y-95692885D01*
X765303685Y-95502409D01*
X765303685Y-95359552D01*
X765351304Y-95169076D01*
X765398923Y-95073838D01*
X765494161Y-94978600D01*
X765637019Y-94930980D01*
X765732257Y-94930980D01*
X765875114Y-94978600D01*
X765922733Y-95026219D01*
X766779876Y-95264314D02*
X766779876Y-95930980D01*
X766541780Y-94883361D02*
X766303685Y-95597647D01*
X766922733Y-95597647D01*
%TO.C,U1*%
X774776295Y-81164180D02*
X774776295Y-81973704D01*
X774823914Y-82068942D01*
X774871533Y-82116561D01*
X774966771Y-82164180D01*
X775157247Y-82164180D01*
X775252485Y-82116561D01*
X775300104Y-82068942D01*
X775347723Y-81973704D01*
X775347723Y-81164180D01*
X776347723Y-82164180D02*
X775776295Y-82164180D01*
X776062009Y-82164180D02*
X776062009Y-81164180D01*
X775966771Y-81307038D01*
X775871533Y-81402276D01*
X775776295Y-81449895D01*
%TO.C,R11*%
X800979880Y-38260857D02*
X800503690Y-38594190D01*
X800979880Y-38832285D02*
X799979880Y-38832285D01*
X799979880Y-38451333D01*
X800027500Y-38356095D01*
X800075119Y-38308476D01*
X800170357Y-38260857D01*
X800313214Y-38260857D01*
X800408452Y-38308476D01*
X800456071Y-38356095D01*
X800503690Y-38451333D01*
X800503690Y-38832285D01*
X800979880Y-37308476D02*
X800979880Y-37879904D01*
X800979880Y-37594190D02*
X799979880Y-37594190D01*
X800122738Y-37689428D01*
X800217976Y-37784666D01*
X800265595Y-37879904D01*
X800979880Y-36356095D02*
X800979880Y-36927523D01*
X800979880Y-36641809D02*
X799979880Y-36641809D01*
X800122738Y-36737047D01*
X800217976Y-36832285D01*
X800265595Y-36927523D01*
%TO.C,C17*%
X781987142Y-109608857D02*
X782034761Y-109656476D01*
X782082380Y-109799333D01*
X782082380Y-109894571D01*
X782034761Y-110037428D01*
X781939523Y-110132666D01*
X781844285Y-110180285D01*
X781653809Y-110227904D01*
X781510952Y-110227904D01*
X781320476Y-110180285D01*
X781225238Y-110132666D01*
X781130000Y-110037428D01*
X781082380Y-109894571D01*
X781082380Y-109799333D01*
X781130000Y-109656476D01*
X781177619Y-109608857D01*
X782082380Y-108656476D02*
X782082380Y-109227904D01*
X782082380Y-108942190D02*
X781082380Y-108942190D01*
X781225238Y-109037428D01*
X781320476Y-109132666D01*
X781368095Y-109227904D01*
X781082380Y-108323142D02*
X781082380Y-107656476D01*
X782082380Y-108085047D01*
%TO.C,RVPROP1*%
X781779380Y-71961047D02*
X781303190Y-72294380D01*
X781779380Y-72532476D02*
X780779380Y-72532476D01*
X780779380Y-72151523D01*
X780827000Y-72056285D01*
X780874619Y-72008666D01*
X780969857Y-71961047D01*
X781112714Y-71961047D01*
X781207952Y-72008666D01*
X781255571Y-72056285D01*
X781303190Y-72151523D01*
X781303190Y-72532476D01*
X780779380Y-71675333D02*
X781779380Y-71342000D01*
X780779380Y-71008666D01*
X781779380Y-70675333D02*
X780779380Y-70675333D01*
X780779380Y-70294380D01*
X780827000Y-70199142D01*
X780874619Y-70151523D01*
X780969857Y-70103904D01*
X781112714Y-70103904D01*
X781207952Y-70151523D01*
X781255571Y-70199142D01*
X781303190Y-70294380D01*
X781303190Y-70675333D01*
X781779380Y-69103904D02*
X781303190Y-69437238D01*
X781779380Y-69675333D02*
X780779380Y-69675333D01*
X780779380Y-69294380D01*
X780827000Y-69199142D01*
X780874619Y-69151523D01*
X780969857Y-69103904D01*
X781112714Y-69103904D01*
X781207952Y-69151523D01*
X781255571Y-69199142D01*
X781303190Y-69294380D01*
X781303190Y-69675333D01*
X780779380Y-68484857D02*
X780779380Y-68294380D01*
X780827000Y-68199142D01*
X780922238Y-68103904D01*
X781112714Y-68056285D01*
X781446047Y-68056285D01*
X781636523Y-68103904D01*
X781731761Y-68199142D01*
X781779380Y-68294380D01*
X781779380Y-68484857D01*
X781731761Y-68580095D01*
X781636523Y-68675333D01*
X781446047Y-68722952D01*
X781112714Y-68722952D01*
X780922238Y-68675333D01*
X780827000Y-68580095D01*
X780779380Y-68484857D01*
X781779380Y-67627714D02*
X780779380Y-67627714D01*
X780779380Y-67246761D01*
X780827000Y-67151523D01*
X780874619Y-67103904D01*
X780969857Y-67056285D01*
X781112714Y-67056285D01*
X781207952Y-67103904D01*
X781255571Y-67151523D01*
X781303190Y-67246761D01*
X781303190Y-67627714D01*
X781779380Y-66103904D02*
X781779380Y-66675333D01*
X781779380Y-66389619D02*
X780779380Y-66389619D01*
X780922238Y-66484857D01*
X781017476Y-66580095D01*
X781065095Y-66675333D01*
%TO.C,D2*%
X801673304Y-73121780D02*
X801673304Y-72121780D01*
X801911400Y-72121780D01*
X802054257Y-72169400D01*
X802149495Y-72264638D01*
X802197114Y-72359876D01*
X802244733Y-72550352D01*
X802244733Y-72693209D01*
X802197114Y-72883685D01*
X802149495Y-72978923D01*
X802054257Y-73074161D01*
X801911400Y-73121780D01*
X801673304Y-73121780D01*
X802625685Y-72217019D02*
X802673304Y-72169400D01*
X802768542Y-72121780D01*
X803006638Y-72121780D01*
X803101876Y-72169400D01*
X803149495Y-72217019D01*
X803197114Y-72312257D01*
X803197114Y-72407495D01*
X803149495Y-72550352D01*
X802578066Y-73121780D01*
X803197114Y-73121780D01*
X798949095Y-73328380D02*
X798949095Y-72328380D01*
X799520523Y-73328380D02*
X799091952Y-72756952D01*
X799520523Y-72328380D02*
X798949095Y-72899809D01*
%TO.C,C19*%
X811067142Y-76883142D02*
X811019523Y-76930761D01*
X810876666Y-76978380D01*
X810781428Y-76978380D01*
X810638571Y-76930761D01*
X810543333Y-76835523D01*
X810495714Y-76740285D01*
X810448095Y-76549809D01*
X810448095Y-76406952D01*
X810495714Y-76216476D01*
X810543333Y-76121238D01*
X810638571Y-76026000D01*
X810781428Y-75978380D01*
X810876666Y-75978380D01*
X811019523Y-76026000D01*
X811067142Y-76073619D01*
X812019523Y-76978380D02*
X811448095Y-76978380D01*
X811733809Y-76978380D02*
X811733809Y-75978380D01*
X811638571Y-76121238D01*
X811543333Y-76216476D01*
X811448095Y-76264095D01*
X812495714Y-76978380D02*
X812686190Y-76978380D01*
X812781428Y-76930761D01*
X812829047Y-76883142D01*
X812924285Y-76740285D01*
X812971904Y-76549809D01*
X812971904Y-76168857D01*
X812924285Y-76073619D01*
X812876666Y-76026000D01*
X812781428Y-75978380D01*
X812590952Y-75978380D01*
X812495714Y-76026000D01*
X812448095Y-76073619D01*
X812400476Y-76168857D01*
X812400476Y-76406952D01*
X812448095Y-76502190D01*
X812495714Y-76549809D01*
X812590952Y-76597428D01*
X812781428Y-76597428D01*
X812876666Y-76549809D01*
X812924285Y-76502190D01*
X812971904Y-76406952D01*
%TO.C,RVLLIM*%
X805082904Y-72819380D02*
X804749571Y-72343190D01*
X804511476Y-72819380D02*
X804511476Y-71819380D01*
X804892428Y-71819380D01*
X804987666Y-71867000D01*
X805035285Y-71914619D01*
X805082904Y-72009857D01*
X805082904Y-72152714D01*
X805035285Y-72247952D01*
X804987666Y-72295571D01*
X804892428Y-72343190D01*
X804511476Y-72343190D01*
X805368619Y-71819380D02*
X805701952Y-72819380D01*
X806035285Y-71819380D01*
X806844809Y-72819380D02*
X806368619Y-72819380D01*
X806368619Y-71819380D01*
X807654333Y-72819380D02*
X807178142Y-72819380D01*
X807178142Y-71819380D01*
X807987666Y-72819380D02*
X807987666Y-71819380D01*
X808463857Y-72819380D02*
X808463857Y-71819380D01*
X808797190Y-72533666D01*
X809130523Y-71819380D01*
X809130523Y-72819380D01*
%TO.C,P4*%
X762925580Y-116454133D02*
X762925580Y-116263657D01*
X762973200Y-116168419D01*
X763068438Y-116073180D01*
X763258914Y-116025561D01*
X763592247Y-116025561D01*
X763782723Y-116073180D01*
X763877961Y-116168419D01*
X763925580Y-116263657D01*
X763925580Y-116454133D01*
X763877961Y-116549371D01*
X763782723Y-116644609D01*
X763592247Y-116692228D01*
X763258914Y-116692228D01*
X763068438Y-116644609D01*
X762973200Y-116549371D01*
X762925580Y-116454133D01*
X763258914Y-115168419D02*
X763925580Y-115168419D01*
X763258914Y-115596990D02*
X763782723Y-115596990D01*
X763877961Y-115549371D01*
X763925580Y-115454133D01*
X763925580Y-115311276D01*
X763877961Y-115216038D01*
X763830342Y-115168419D01*
X763258914Y-114835085D02*
X763258914Y-114454133D01*
X762925580Y-114692228D02*
X763782723Y-114692228D01*
X763877961Y-114644609D01*
X763925580Y-114549371D01*
X763925580Y-114454133D01*
%TO.C,D4*%
X803208404Y-98957380D02*
X803208404Y-97957380D01*
X803446500Y-97957380D01*
X803589357Y-98005000D01*
X803684595Y-98100238D01*
X803732214Y-98195476D01*
X803779833Y-98385952D01*
X803779833Y-98528809D01*
X803732214Y-98719285D01*
X803684595Y-98814523D01*
X803589357Y-98909761D01*
X803446500Y-98957380D01*
X803208404Y-98957380D01*
X804636976Y-98290714D02*
X804636976Y-98957380D01*
X804398880Y-97909761D02*
X804160785Y-98624047D01*
X804779833Y-98624047D01*
%TO.C,W6*%
X813444638Y-66711380D02*
X813682733Y-67711380D01*
X813873209Y-66997095D01*
X814063685Y-67711380D01*
X814301780Y-66711380D01*
X815111304Y-66711380D02*
X814920828Y-66711380D01*
X814825590Y-66759000D01*
X814777971Y-66806619D01*
X814682733Y-66949476D01*
X814635114Y-67139952D01*
X814635114Y-67520904D01*
X814682733Y-67616142D01*
X814730352Y-67663761D01*
X814825590Y-67711380D01*
X815016066Y-67711380D01*
X815111304Y-67663761D01*
X815158923Y-67616142D01*
X815206542Y-67520904D01*
X815206542Y-67282809D01*
X815158923Y-67187571D01*
X815111304Y-67139952D01*
X815016066Y-67092333D01*
X814825590Y-67092333D01*
X814730352Y-67139952D01*
X814682733Y-67187571D01*
X814635114Y-67282809D01*
X812825590Y-70709380D02*
X812349400Y-70709380D01*
X812349400Y-69709380D01*
X813635114Y-70709380D02*
X813158923Y-70709380D01*
X813158923Y-69709380D01*
X813968447Y-70709380D02*
X813968447Y-69709380D01*
X814444638Y-70709380D02*
X814444638Y-69709380D01*
X814777971Y-70423666D01*
X815111304Y-69709380D01*
X815111304Y-70709380D01*
X815587495Y-70709380D02*
X815587495Y-69709380D01*
X815920828Y-69709380D02*
X816492257Y-69709380D01*
X816206542Y-70709380D02*
X816206542Y-69709380D01*
%TO.C,U5*%
X797407695Y-96226780D02*
X797407695Y-97036304D01*
X797455314Y-97131542D01*
X797502933Y-97179161D01*
X797598171Y-97226780D01*
X797788647Y-97226780D01*
X797883885Y-97179161D01*
X797931504Y-97131542D01*
X797979123Y-97036304D01*
X797979123Y-96226780D01*
X798931504Y-96226780D02*
X798455314Y-96226780D01*
X798407695Y-96702971D01*
X798455314Y-96655352D01*
X798550552Y-96607733D01*
X798788647Y-96607733D01*
X798883885Y-96655352D01*
X798931504Y-96702971D01*
X798979123Y-96798209D01*
X798979123Y-97036304D01*
X798931504Y-97131542D01*
X798883885Y-97179161D01*
X798788647Y-97226780D01*
X798550552Y-97226780D01*
X798455314Y-97179161D01*
X798407695Y-97131542D01*
%TO.C,W5*%
X813419238Y-77912780D02*
X813657333Y-78912780D01*
X813847809Y-78198495D01*
X814038285Y-78912780D01*
X814276380Y-77912780D01*
X815133523Y-77912780D02*
X814657333Y-77912780D01*
X814609714Y-78388971D01*
X814657333Y-78341352D01*
X814752571Y-78293733D01*
X814990666Y-78293733D01*
X815085904Y-78341352D01*
X815133523Y-78388971D01*
X815181142Y-78484209D01*
X815181142Y-78722304D01*
X815133523Y-78817542D01*
X815085904Y-78865161D01*
X814990666Y-78912780D01*
X814752571Y-78912780D01*
X814657333Y-78865161D01*
X814609714Y-78817542D01*
X812204952Y-80910780D02*
X812204952Y-81720304D01*
X812252571Y-81815542D01*
X812300190Y-81863161D01*
X812395428Y-81910780D01*
X812585904Y-81910780D01*
X812681142Y-81863161D01*
X812728761Y-81815542D01*
X812776380Y-81720304D01*
X812776380Y-80910780D01*
X813728761Y-81910780D02*
X813252571Y-81910780D01*
X813252571Y-80910780D01*
X814062095Y-81910780D02*
X814062095Y-80910780D01*
X814538285Y-81910780D02*
X814538285Y-80910780D01*
X814871619Y-81625066D01*
X815204952Y-80910780D01*
X815204952Y-81910780D01*
X815681142Y-81910780D02*
X815681142Y-80910780D01*
X816014476Y-80910780D02*
X816585904Y-80910780D01*
X816300190Y-81910780D02*
X816300190Y-80910780D01*
%TO.C,P5*%
X764027180Y-39790619D02*
X763550990Y-40123952D01*
X764027180Y-40362047D02*
X763027180Y-40362047D01*
X763027180Y-39981095D01*
X763074800Y-39885857D01*
X763122419Y-39838238D01*
X763217657Y-39790619D01*
X763360514Y-39790619D01*
X763455752Y-39838238D01*
X763503371Y-39885857D01*
X763550990Y-39981095D01*
X763550990Y-40362047D01*
X763979561Y-39409666D02*
X764027180Y-39266809D01*
X764027180Y-39028714D01*
X763979561Y-38933476D01*
X763931942Y-38885857D01*
X763836704Y-38838238D01*
X763741466Y-38838238D01*
X763646228Y-38885857D01*
X763598609Y-38933476D01*
X763550990Y-39028714D01*
X763503371Y-39219190D01*
X763455752Y-39314428D01*
X763408133Y-39362047D01*
X763312895Y-39409666D01*
X763217657Y-39409666D01*
X763122419Y-39362047D01*
X763074800Y-39314428D01*
X763027180Y-39219190D01*
X763027180Y-38981095D01*
X763074800Y-38838238D01*
X763027180Y-38552523D02*
X763027180Y-37981095D01*
X764027180Y-38266809D02*
X763027180Y-38266809D01*
%TO.C,W3*%
X784082238Y-74839380D02*
X784320333Y-75839380D01*
X784510809Y-75125095D01*
X784701285Y-75839380D01*
X784939380Y-74839380D01*
X785225095Y-74839380D02*
X785844142Y-74839380D01*
X785510809Y-75220333D01*
X785653666Y-75220333D01*
X785748904Y-75267952D01*
X785796523Y-75315571D01*
X785844142Y-75410809D01*
X785844142Y-75648904D01*
X785796523Y-75744142D01*
X785748904Y-75791761D01*
X785653666Y-75839380D01*
X785367952Y-75839380D01*
X785272714Y-75791761D01*
X785225095Y-75744142D01*
X783201285Y-78837380D02*
X783201285Y-77837380D01*
X783582238Y-77837380D01*
X783677476Y-77885000D01*
X783725095Y-77932619D01*
X783772714Y-78027857D01*
X783772714Y-78170714D01*
X783725095Y-78265952D01*
X783677476Y-78313571D01*
X783582238Y-78361190D01*
X783201285Y-78361190D01*
X784772714Y-78837380D02*
X784439380Y-78361190D01*
X784201285Y-78837380D02*
X784201285Y-77837380D01*
X784582238Y-77837380D01*
X784677476Y-77885000D01*
X784725095Y-77932619D01*
X784772714Y-78027857D01*
X784772714Y-78170714D01*
X784725095Y-78265952D01*
X784677476Y-78313571D01*
X784582238Y-78361190D01*
X784201285Y-78361190D01*
X785391761Y-77837380D02*
X785582238Y-77837380D01*
X785677476Y-77885000D01*
X785772714Y-77980238D01*
X785820333Y-78170714D01*
X785820333Y-78504047D01*
X785772714Y-78694523D01*
X785677476Y-78789761D01*
X785582238Y-78837380D01*
X785391761Y-78837380D01*
X785296523Y-78789761D01*
X785201285Y-78694523D01*
X785153666Y-78504047D01*
X785153666Y-78170714D01*
X785201285Y-77980238D01*
X785296523Y-77885000D01*
X785391761Y-77837380D01*
X786248904Y-78837380D02*
X786248904Y-77837380D01*
X786629857Y-77837380D01*
X786725095Y-77885000D01*
X786772714Y-77932619D01*
X786820333Y-78027857D01*
X786820333Y-78170714D01*
X786772714Y-78265952D01*
X786725095Y-78313571D01*
X786629857Y-78361190D01*
X786248904Y-78361190D01*
%TO.C,W1*%
X783675838Y-83831180D02*
X783913933Y-84831180D01*
X784104409Y-84116895D01*
X784294885Y-84831180D01*
X784532980Y-83831180D01*
X785437742Y-84831180D02*
X784866314Y-84831180D01*
X785152028Y-84831180D02*
X785152028Y-83831180D01*
X785056790Y-83974038D01*
X784961552Y-84069276D01*
X784866314Y-84116895D01*
X782393304Y-87761771D02*
X782726638Y-87761771D01*
X782869495Y-88285580D02*
X782393304Y-88285580D01*
X782393304Y-87285580D01*
X782869495Y-87285580D01*
X783869495Y-88285580D02*
X783536161Y-87809390D01*
X783298066Y-88285580D02*
X783298066Y-87285580D01*
X783679019Y-87285580D01*
X783774257Y-87333200D01*
X783821876Y-87380819D01*
X783869495Y-87476057D01*
X783869495Y-87618914D01*
X783821876Y-87714152D01*
X783774257Y-87761771D01*
X783679019Y-87809390D01*
X783298066Y-87809390D01*
X784869495Y-88285580D02*
X784536161Y-87809390D01*
X784298066Y-88285580D02*
X784298066Y-87285580D01*
X784679019Y-87285580D01*
X784774257Y-87333200D01*
X784821876Y-87380819D01*
X784869495Y-87476057D01*
X784869495Y-87618914D01*
X784821876Y-87714152D01*
X784774257Y-87761771D01*
X784679019Y-87809390D01*
X784298066Y-87809390D01*
X785488542Y-87285580D02*
X785679019Y-87285580D01*
X785774257Y-87333200D01*
X785869495Y-87428438D01*
X785917114Y-87618914D01*
X785917114Y-87952247D01*
X785869495Y-88142723D01*
X785774257Y-88237961D01*
X785679019Y-88285580D01*
X785488542Y-88285580D01*
X785393304Y-88237961D01*
X785298066Y-88142723D01*
X785250447Y-87952247D01*
X785250447Y-87618914D01*
X785298066Y-87428438D01*
X785393304Y-87333200D01*
X785488542Y-87285580D01*
X786917114Y-88285580D02*
X786583780Y-87809390D01*
X786345685Y-88285580D02*
X786345685Y-87285580D01*
X786726638Y-87285580D01*
X786821876Y-87333200D01*
X786869495Y-87380819D01*
X786917114Y-87476057D01*
X786917114Y-87618914D01*
X786869495Y-87714152D01*
X786821876Y-87761771D01*
X786726638Y-87809390D01*
X786345685Y-87809390D01*
X768964371Y-90198295D02*
X768964371Y-89864961D01*
X769488180Y-89722104D02*
X769488180Y-90198295D01*
X768488180Y-90198295D01*
X768488180Y-89722104D01*
X769488180Y-88722104D02*
X769011990Y-89055438D01*
X769488180Y-89293533D02*
X768488180Y-89293533D01*
X768488180Y-88912580D01*
X768535800Y-88817342D01*
X768583419Y-88769723D01*
X768678657Y-88722104D01*
X768821514Y-88722104D01*
X768916752Y-88769723D01*
X768964371Y-88817342D01*
X769011990Y-88912580D01*
X769011990Y-89293533D01*
X769488180Y-87722104D02*
X769011990Y-88055438D01*
X769488180Y-88293533D02*
X768488180Y-88293533D01*
X768488180Y-87912580D01*
X768535800Y-87817342D01*
X768583419Y-87769723D01*
X768678657Y-87722104D01*
X768821514Y-87722104D01*
X768916752Y-87769723D01*
X768964371Y-87817342D01*
X769011990Y-87912580D01*
X769011990Y-88293533D01*
X768488180Y-87103057D02*
X768488180Y-86912580D01*
X768535800Y-86817342D01*
X768631038Y-86722104D01*
X768821514Y-86674485D01*
X769154847Y-86674485D01*
X769345323Y-86722104D01*
X769440561Y-86817342D01*
X769488180Y-86912580D01*
X769488180Y-87103057D01*
X769440561Y-87198295D01*
X769345323Y-87293533D01*
X769154847Y-87341152D01*
X768821514Y-87341152D01*
X768631038Y-87293533D01*
X768535800Y-87198295D01*
X768488180Y-87103057D01*
X769488180Y-85674485D02*
X769011990Y-86007819D01*
X769488180Y-86245914D02*
X768488180Y-86245914D01*
X768488180Y-85864961D01*
X768535800Y-85769723D01*
X768583419Y-85722104D01*
X768678657Y-85674485D01*
X768821514Y-85674485D01*
X768916752Y-85722104D01*
X768964371Y-85769723D01*
X769011990Y-85864961D01*
X769011990Y-86245914D01*
%TO.C,W2*%
X790787838Y-38593580D02*
X791025933Y-39593580D01*
X791216409Y-38879295D01*
X791406885Y-39593580D01*
X791644980Y-38593580D01*
X791978314Y-38688819D02*
X792025933Y-38641200D01*
X792121171Y-38593580D01*
X792359266Y-38593580D01*
X792454504Y-38641200D01*
X792502123Y-38688819D01*
X792549742Y-38784057D01*
X792549742Y-38879295D01*
X792502123Y-39022152D01*
X791930695Y-39593580D01*
X792549742Y-39593580D01*
X790787838Y-42591580D02*
X790787838Y-41591580D01*
X791264028Y-42591580D02*
X791264028Y-41591580D01*
X791835457Y-42591580D01*
X791835457Y-41591580D01*
X792168790Y-41591580D02*
X792740219Y-41591580D01*
X792454504Y-42591580D02*
X792454504Y-41591580D01*
%TO.C,P2*%
X764027180Y-65592200D02*
X763027180Y-65592200D01*
X764027180Y-65116009D02*
X763027180Y-65116009D01*
X764027180Y-64544580D01*
X763027180Y-64544580D01*
X764027180Y-63544580D02*
X764027180Y-64116009D01*
X764027180Y-63830295D02*
X763027180Y-63830295D01*
X763170038Y-63925533D01*
X763265276Y-64020771D01*
X763312895Y-64116009D01*
%TO.C,U8*%
X797280695Y-113980580D02*
X797280695Y-114790104D01*
X797328314Y-114885342D01*
X797375933Y-114932961D01*
X797471171Y-114980580D01*
X797661647Y-114980580D01*
X797756885Y-114932961D01*
X797804504Y-114885342D01*
X797852123Y-114790104D01*
X797852123Y-113980580D01*
X798471171Y-114409152D02*
X798375933Y-114361533D01*
X798328314Y-114313914D01*
X798280695Y-114218676D01*
X798280695Y-114171057D01*
X798328314Y-114075819D01*
X798375933Y-114028200D01*
X798471171Y-113980580D01*
X798661647Y-113980580D01*
X798756885Y-114028200D01*
X798804504Y-114075819D01*
X798852123Y-114171057D01*
X798852123Y-114218676D01*
X798804504Y-114313914D01*
X798756885Y-114361533D01*
X798661647Y-114409152D01*
X798471171Y-114409152D01*
X798375933Y-114456771D01*
X798328314Y-114504390D01*
X798280695Y-114599628D01*
X798280695Y-114790104D01*
X798328314Y-114885342D01*
X798375933Y-114932961D01*
X798471171Y-114980580D01*
X798661647Y-114980580D01*
X798756885Y-114932961D01*
X798804504Y-114885342D01*
X798852123Y-114790104D01*
X798852123Y-114599628D01*
X798804504Y-114504390D01*
X798756885Y-114456771D01*
X798661647Y-114409152D01*
%TO.C,SW1*%
X760031666Y-102436561D02*
X760174523Y-102484180D01*
X760412619Y-102484180D01*
X760507857Y-102436561D01*
X760555476Y-102388942D01*
X760603095Y-102293704D01*
X760603095Y-102198466D01*
X760555476Y-102103228D01*
X760507857Y-102055609D01*
X760412619Y-102007990D01*
X760222142Y-101960371D01*
X760126904Y-101912752D01*
X760079285Y-101865133D01*
X760031666Y-101769895D01*
X760031666Y-101674657D01*
X760079285Y-101579419D01*
X760126904Y-101531800D01*
X760222142Y-101484180D01*
X760460238Y-101484180D01*
X760603095Y-101531800D01*
X760936428Y-101484180D02*
X761174523Y-102484180D01*
X761365000Y-101769895D01*
X761555476Y-102484180D01*
X761793571Y-101484180D01*
X762698333Y-102484180D02*
X762126904Y-102484180D01*
X762412619Y-102484180D02*
X762412619Y-101484180D01*
X762317380Y-101627038D01*
X762222142Y-101722276D01*
X762126904Y-101769895D01*
%TO.C,C13*%
X793716742Y-107621342D02*
X793669123Y-107668961D01*
X793526266Y-107716580D01*
X793431028Y-107716580D01*
X793288171Y-107668961D01*
X793192933Y-107573723D01*
X793145314Y-107478485D01*
X793097695Y-107288009D01*
X793097695Y-107145152D01*
X793145314Y-106954676D01*
X793192933Y-106859438D01*
X793288171Y-106764200D01*
X793431028Y-106716580D01*
X793526266Y-106716580D01*
X793669123Y-106764200D01*
X793716742Y-106811819D01*
X794669123Y-107716580D02*
X794097695Y-107716580D01*
X794383409Y-107716580D02*
X794383409Y-106716580D01*
X794288171Y-106859438D01*
X794192933Y-106954676D01*
X794097695Y-107002295D01*
X795002457Y-106716580D02*
X795621504Y-106716580D01*
X795288171Y-107097533D01*
X795431028Y-107097533D01*
X795526266Y-107145152D01*
X795573885Y-107192771D01*
X795621504Y-107288009D01*
X795621504Y-107526104D01*
X795573885Y-107621342D01*
X795526266Y-107668961D01*
X795431028Y-107716580D01*
X795145314Y-107716580D01*
X795050076Y-107668961D01*
X795002457Y-107621342D01*
%TO.C,P3*%
X763925580Y-91195400D02*
X762925580Y-91195400D01*
X763925580Y-90719209D02*
X762925580Y-90719209D01*
X763925580Y-90147780D01*
X762925580Y-90147780D01*
X763020819Y-89719209D02*
X762973200Y-89671590D01*
X762925580Y-89576352D01*
X762925580Y-89338257D01*
X762973200Y-89243019D01*
X763020819Y-89195400D01*
X763116057Y-89147780D01*
X763211295Y-89147780D01*
X763354152Y-89195400D01*
X763925580Y-89766828D01*
X763925580Y-89147780D01*
%TO.C,W4*%
X807907438Y-55382980D02*
X808145533Y-56382980D01*
X808336009Y-55668695D01*
X808526485Y-56382980D01*
X808764580Y-55382980D01*
X809574104Y-55716314D02*
X809574104Y-56382980D01*
X809336009Y-55335361D02*
X809097914Y-56049647D01*
X809716961Y-56049647D01*
X807431247Y-59333361D02*
X807574104Y-59380980D01*
X807812200Y-59380980D01*
X807907438Y-59333361D01*
X807955057Y-59285742D01*
X808002676Y-59190504D01*
X808002676Y-59095266D01*
X807955057Y-59000028D01*
X807907438Y-58952409D01*
X807812200Y-58904790D01*
X807621723Y-58857171D01*
X807526485Y-58809552D01*
X807478866Y-58761933D01*
X807431247Y-58666695D01*
X807431247Y-58571457D01*
X807478866Y-58476219D01*
X807526485Y-58428600D01*
X807621723Y-58380980D01*
X807859819Y-58380980D01*
X808002676Y-58428600D01*
X808431247Y-58380980D02*
X808431247Y-59190504D01*
X808478866Y-59285742D01*
X808526485Y-59333361D01*
X808621723Y-59380980D01*
X808812200Y-59380980D01*
X808907438Y-59333361D01*
X808955057Y-59285742D01*
X809002676Y-59190504D01*
X809002676Y-58380980D01*
X809478866Y-59380980D02*
X809478866Y-58380980D01*
X809812200Y-59095266D01*
X810145533Y-58380980D01*
X810145533Y-59380980D01*
%TO.C,D5*%
X803121404Y-113265380D02*
X803121404Y-112265380D01*
X803359500Y-112265380D01*
X803502357Y-112313000D01*
X803597595Y-112408238D01*
X803645214Y-112503476D01*
X803692833Y-112693952D01*
X803692833Y-112836809D01*
X803645214Y-113027285D01*
X803597595Y-113122523D01*
X803502357Y-113217761D01*
X803359500Y-113265380D01*
X803121404Y-113265380D01*
X804597595Y-112265380D02*
X804121404Y-112265380D01*
X804073785Y-112741571D01*
X804121404Y-112693952D01*
X804216642Y-112646333D01*
X804454738Y-112646333D01*
X804549976Y-112693952D01*
X804597595Y-112741571D01*
X804645214Y-112836809D01*
X804645214Y-113074904D01*
X804597595Y-113170142D01*
X804549976Y-113217761D01*
X804454738Y-113265380D01*
X804216642Y-113265380D01*
X804121404Y-113217761D01*
X804073785Y-113170142D01*
D12*
%TO.C,C1*%
X803249548Y-102290200D02*
X804672052Y-102290200D01*
X803249548Y-104110200D02*
X804672052Y-104110200D01*
%TO.C,C2*%
X804621252Y-107294000D02*
X803198748Y-107294000D01*
X804621252Y-109114000D02*
X803198748Y-109114000D01*
%TO.C,C3*%
X797724648Y-103052200D02*
X799147152Y-103052200D01*
X797724648Y-104872200D02*
X799147152Y-104872200D01*
%TO.C,C6*%
X782740000Y-48839000D02*
X786980000Y-48839000D01*
X782740000Y-35599000D02*
X786980000Y-35599000D01*
X782740000Y-48839000D02*
X782740000Y-35599000D01*
X786980000Y-48839000D02*
X786980000Y-35599000D01*
%TO.C,C7*%
X772435000Y-55957252D02*
X772435000Y-54534748D01*
X770615000Y-55957252D02*
X770615000Y-54534748D01*
%TO.C,C8*%
X778743000Y-37388748D02*
X778743000Y-38811252D01*
X780563000Y-37388748D02*
X780563000Y-38811252D01*
%TO.C,C9*%
X770615000Y-77253752D02*
X770615000Y-75831248D01*
X772435000Y-77253752D02*
X772435000Y-75831248D01*
%TO.C,C10*%
X778870000Y-58978748D02*
X778870000Y-60401252D01*
X780690000Y-58978748D02*
X780690000Y-60401252D01*
%TO.C,C11*%
X795159248Y-61320000D02*
X796581752Y-61320000D01*
X795159248Y-63140000D02*
X796581752Y-63140000D01*
%TO.C,C12*%
X809861500Y-51104748D02*
X809861500Y-52527252D01*
X808041500Y-51104748D02*
X808041500Y-52527252D01*
%TO.C,C16*%
X772308000Y-127799752D02*
X772308000Y-126377248D01*
X770488000Y-127799752D02*
X770488000Y-126377248D01*
%TO.C,C18*%
X812406752Y-86762000D02*
X810984248Y-86762000D01*
X812406752Y-84942000D02*
X810984248Y-84942000D01*
%TO.C,C20*%
X798177500Y-24254748D02*
X798177500Y-25677252D01*
X796357500Y-24254748D02*
X796357500Y-25677252D01*
%TO.C,D3*%
X804200000Y-119650800D02*
X804200000Y-119494800D01*
X804200000Y-117334800D02*
X804200000Y-117178800D01*
X803680961Y-117334800D02*
G75*
G03*
X801598870Y-117334963I-1040961J-1080000D01*
G01*
X801598870Y-119494637D02*
G75*
G03*
X803680961Y-119494800I1041130J1079837D01*
G01*
X804200000Y-117179284D02*
G75*
G03*
X800967665Y-117336192I-1560000J-1235516D01*
G01*
X800967665Y-119493408D02*
G75*
G03*
X804200000Y-119650316I1672335J1078608D01*
G01*
%TO.C,P1*%
X809371000Y-98044000D02*
X816991000Y-98044000D01*
X809371000Y-113284000D02*
X816991000Y-113284000D01*
X816991000Y-98044000D02*
X816991000Y-113284000D01*
X810641000Y-98044000D02*
X810641000Y-113284000D01*
X809371000Y-98044000D02*
X809371000Y-113284000D01*
%TO.C,R1*%
X798177500Y-42859936D02*
X798177500Y-44314064D01*
X796357500Y-42859936D02*
X796357500Y-44314064D01*
%TO.C,R2*%
X792406564Y-44302000D02*
X790952436Y-44302000D01*
X792406564Y-46122000D02*
X790952436Y-46122000D01*
%TO.C,R6*%
X782867000Y-49641000D02*
X782867000Y-62881000D01*
X787107000Y-49641000D02*
X782867000Y-49641000D01*
X787107000Y-62881000D02*
X782867000Y-62881000D01*
X787107000Y-49641000D02*
X787107000Y-62881000D01*
%TO.C,R7*%
X787873064Y-29951000D02*
X786418936Y-29951000D01*
X787873064Y-31771000D02*
X786418936Y-31771000D01*
%TO.C,R8*%
X800171800Y-69179464D02*
X800171800Y-67725336D01*
X798351800Y-69179464D02*
X798351800Y-67725336D01*
%TO.C,R9*%
X802185564Y-25379000D02*
X800731436Y-25379000D01*
X802185564Y-27199000D02*
X800731436Y-27199000D01*
%TO.C,R10*%
X800757436Y-23770000D02*
X802211564Y-23770000D01*
X800757436Y-21950000D02*
X802211564Y-21950000D01*
%TO.C,R12*%
X798177500Y-38345064D02*
X798177500Y-36890936D01*
X796357500Y-38345064D02*
X796357500Y-36890936D01*
%TO.C,R13*%
X791785500Y-31683936D02*
X791785500Y-33138064D01*
X793605500Y-31683936D02*
X793605500Y-33138064D01*
%TO.C,RVGAIN1*%
X796340800Y-74166200D02*
X796340800Y-64396200D01*
X791270800Y-74166200D02*
X796340800Y-74166200D01*
X791270800Y-64396200D02*
X796340800Y-64396200D01*
X791270800Y-74166200D02*
X791270800Y-64396200D01*
%TO.C,RVULIM*%
X811833000Y-77343000D02*
X802063000Y-77343000D01*
X811833000Y-82413000D02*
X811833000Y-77343000D01*
X811833000Y-82413000D02*
X802063000Y-82413000D01*
X802063000Y-82413000D02*
X802063000Y-77343000D01*
%TO.C,U2*%
X772671499Y-41342000D02*
X772671499Y-51622000D01*
X777971499Y-41342000D02*
X776321499Y-41342000D01*
X770181499Y-51682000D02*
X780461499Y-51682000D01*
X780461499Y-51682000D02*
X780461499Y-41282000D01*
X777971499Y-51622000D02*
X777971499Y-41342000D01*
X770181499Y-41282000D02*
X770181499Y-51682000D01*
X780461499Y-41282000D02*
X770181499Y-41282000D01*
X774321499Y-41342000D02*
X772671499Y-41342000D01*
X772671499Y-51622000D02*
X777971499Y-51622000D01*
X774321499Y-41342000D02*
G75*
G03*
X776321499Y-41342000I1000000J0D01*
G01*
%TO.C,U3*%
X770181499Y-62985499D02*
X770181499Y-73385499D01*
X770181499Y-73385499D02*
X780461499Y-73385499D01*
X774321499Y-63045499D02*
X772671499Y-63045499D01*
X780461499Y-62985499D02*
X770181499Y-62985499D01*
X777971499Y-73325499D02*
X777971499Y-63045499D01*
X772671499Y-63045499D02*
X772671499Y-73325499D01*
X780461499Y-73385499D02*
X780461499Y-62985499D01*
X777971499Y-63045499D02*
X776321499Y-63045499D01*
X772671499Y-73325499D02*
X777971499Y-73325499D01*
X774321499Y-63045499D02*
G75*
G03*
X776321499Y-63045499I1000000J0D01*
G01*
%TO.C,U4*%
X803864500Y-59760000D02*
X803864500Y-49480000D01*
X798564500Y-49480000D02*
X798564500Y-59760000D01*
X803864500Y-49480000D02*
X802214500Y-49480000D01*
X796074500Y-59820000D02*
X806354500Y-59820000D01*
X798564500Y-59760000D02*
X803864500Y-59760000D01*
X806354500Y-59820000D02*
X806354500Y-49420000D01*
X806354500Y-49420000D02*
X796074500Y-49420000D01*
X800214500Y-49480000D02*
X798564500Y-49480000D01*
X796074500Y-49420000D02*
X796074500Y-59820000D01*
X800214500Y-49480000D02*
G75*
G03*
X802214500Y-49480000I1000000J0D01*
G01*
%TO.C,U6*%
X777971499Y-112208000D02*
X776321499Y-112208000D01*
X770181499Y-112148000D02*
X770181499Y-122548000D01*
X772671499Y-122488000D02*
X777971499Y-122488000D01*
X774321499Y-112208000D02*
X772671499Y-112208000D01*
X777971499Y-122488000D02*
X777971499Y-112208000D01*
X780461499Y-112148000D02*
X770181499Y-112148000D01*
X780461499Y-122548000D02*
X780461499Y-112148000D01*
X772671499Y-112208000D02*
X772671499Y-122488000D01*
X770181499Y-122548000D02*
X780461499Y-122548000D01*
X774321499Y-112208000D02*
G75*
G03*
X776321499Y-112208000I1000000J0D01*
G01*
%TO.C,U7*%
X799807500Y-28962000D02*
X801757500Y-28962000D01*
X799807500Y-34082000D02*
X803257500Y-34082000D01*
X799807500Y-28962000D02*
X797857500Y-28962000D01*
X799807500Y-34082000D02*
X797857500Y-34082000D01*
%TO.C,R5*%
X797728264Y-119350200D02*
X796274136Y-119350200D01*
X797728264Y-117530200D02*
X796274136Y-117530200D01*
%TO.C,D1*%
X805918000Y-85852000D02*
X805268000Y-85852000D01*
X800378000Y-85852000D02*
X801028000Y-85852000D01*
X804428000Y-86972000D02*
X804428000Y-84732000D01*
X805268000Y-84732000D02*
X801028000Y-84732000D01*
X804548000Y-86972000D02*
X804548000Y-84732000D01*
X801028000Y-86972000D02*
X805268000Y-86972000D01*
X801028000Y-84732000D02*
X801028000Y-86972000D01*
X805268000Y-86972000D02*
X805268000Y-84732000D01*
X804668000Y-86972000D02*
X804668000Y-84732000D01*
%TO.C,C5*%
X780690000Y-78917748D02*
X780690000Y-80340252D01*
X778870000Y-78917748D02*
X778870000Y-80340252D01*
%TO.C,C4*%
X769162748Y-96287000D02*
X770585252Y-96287000D01*
X769162748Y-94467000D02*
X770585252Y-94467000D01*
%TO.C,U1*%
X772671499Y-93024000D02*
X777971499Y-93024000D01*
X780461499Y-93084000D02*
X780461499Y-82684000D01*
X770181499Y-82684000D02*
X770181499Y-93084000D01*
X772671499Y-82744000D02*
X772671499Y-93024000D01*
X777971499Y-93024000D02*
X777971499Y-82744000D01*
X770181499Y-93084000D02*
X780461499Y-93084000D01*
X774321499Y-82744000D02*
X772671499Y-82744000D01*
X777971499Y-82744000D02*
X776321499Y-82744000D01*
X780461499Y-82684000D02*
X770181499Y-82684000D01*
X774321499Y-82744000D02*
G75*
G03*
X776321499Y-82744000I1000000J0D01*
G01*
%TO.C,R11*%
X801437500Y-38345064D02*
X801437500Y-36890936D01*
X803257500Y-38345064D02*
X803257500Y-36890936D01*
%TO.C,C17*%
X780690000Y-108254748D02*
X780690000Y-109677252D01*
X778870000Y-108254748D02*
X778870000Y-109677252D01*
%TO.C,RVPROP1*%
X787527000Y-74227000D02*
X787527000Y-64457000D01*
X782457000Y-74227000D02*
X787527000Y-74227000D01*
X782457000Y-74227000D02*
X782457000Y-64457000D01*
X782457000Y-64457000D02*
X787527000Y-64457000D01*
%TO.C,D2*%
X801621000Y-73556000D02*
X801621000Y-75796000D01*
X805141000Y-75796000D02*
X805141000Y-73556000D01*
X801501000Y-73556000D02*
X801501000Y-75796000D01*
X805791000Y-74676000D02*
X805141000Y-74676000D01*
X801741000Y-73556000D02*
X801741000Y-75796000D01*
X800901000Y-75796000D02*
X805141000Y-75796000D01*
X805141000Y-73556000D02*
X800901000Y-73556000D01*
X800901000Y-73556000D02*
X800901000Y-75796000D01*
X800251000Y-74676000D02*
X800901000Y-74676000D01*
%TO.C,C19*%
X812421252Y-75586000D02*
X810998748Y-75586000D01*
X812421252Y-73766000D02*
X810998748Y-73766000D01*
%TO.C,RVLLIM*%
X811706000Y-71237000D02*
X801936000Y-71237000D01*
X801936000Y-71237000D02*
X801936000Y-66167000D01*
X811706000Y-66167000D02*
X801936000Y-66167000D01*
X811706000Y-71237000D02*
X811706000Y-66167000D01*
%TO.C,P4*%
X746916000Y-123070000D02*
X746916000Y-108070000D01*
X746916000Y-108070000D02*
X761916000Y-108070000D01*
X761916000Y-123070000D02*
X746916000Y-123070000D01*
X747116000Y-115570000D02*
X748116000Y-114570000D01*
X761916000Y-108070000D02*
X761916000Y-123070000D01*
X747116000Y-115570000D02*
X748116000Y-116570000D01*
%TO.C,D4*%
X801486500Y-99190000D02*
X801486500Y-101460000D01*
X801486500Y-101460000D02*
X805546500Y-101460000D01*
X805546500Y-99190000D02*
X801486500Y-99190000D01*
%TO.C,W6*%
X815049400Y-68707000D02*
G75*
G03*
X815049400Y-68707000I-700000J0D01*
G01*
%TO.C,U5*%
X796369600Y-102184400D02*
X799969600Y-102184400D01*
X800008078Y-102172878D02*
G75*
G03*
X798169600Y-97734400I-1838478J1838478D01*
G01*
X798169600Y-97734399D02*
G75*
G03*
X796331122Y-102172878I0J-2600001D01*
G01*
%TO.C,W5*%
X815024000Y-79908400D02*
G75*
G03*
X815024000Y-79908400I-700000J0D01*
G01*
%TO.C,P5*%
X747116000Y-39374000D02*
X748116000Y-38374000D01*
X761916000Y-31874000D02*
X761916000Y-46874000D01*
X761916000Y-46874000D02*
X746916000Y-46874000D01*
X747116000Y-39374000D02*
X748116000Y-40374000D01*
X746916000Y-31874000D02*
X761916000Y-31874000D01*
X746916000Y-46874000D02*
X746916000Y-31874000D01*
%TO.C,W3*%
X785687000Y-76835000D02*
G75*
G03*
X785687000Y-76835000I-700000J0D01*
G01*
%TO.C,W1*%
X785306000Y-86106000D02*
G75*
G03*
X785306000Y-86106000I-700000J0D01*
G01*
%TO.C,W2*%
X792392600Y-40589200D02*
G75*
G03*
X792392600Y-40589200I-700000J0D01*
G01*
%TO.C,P2*%
X761916000Y-72274000D02*
X746916000Y-72274000D01*
X746916000Y-57274000D02*
X761916000Y-57274000D01*
X746916000Y-72274000D02*
X746916000Y-57274000D01*
X761916000Y-57274000D02*
X761916000Y-72274000D01*
X747116000Y-64774000D02*
X748116000Y-63774000D01*
X747116000Y-64774000D02*
X748116000Y-65774000D01*
%TO.C,U8*%
X799842600Y-109118200D02*
X796242600Y-109118200D01*
X798042600Y-113568201D02*
G75*
G03*
X799881078Y-109129722I0J2600001D01*
G01*
X796204122Y-109129722D02*
G75*
G03*
X798042600Y-113568200I1838478J-1838478D01*
G01*
%TO.C,SW1*%
X763192000Y-100278000D02*
X772492000Y-100278000D01*
X772492000Y-100278000D02*
X772492000Y-108678000D01*
X772492000Y-108678000D02*
X763192000Y-108678000D01*
X763192000Y-108678000D02*
X763192000Y-100278000D01*
%TO.C,C13*%
X799147952Y-106278000D02*
X797725448Y-106278000D01*
X799147952Y-108098000D02*
X797725448Y-108098000D01*
%TO.C,P3*%
X746916000Y-97670000D02*
X746916000Y-82670000D01*
X746916000Y-82670000D02*
X761916000Y-82670000D01*
X747116000Y-90170000D02*
X748116000Y-89170000D01*
X761916000Y-82670000D02*
X761916000Y-97670000D01*
X761916000Y-97670000D02*
X746916000Y-97670000D01*
X747116000Y-90170000D02*
X748116000Y-91170000D01*
%TO.C,W4*%
X809512200Y-57378600D02*
G75*
G03*
X809512200Y-57378600I-700000J0D01*
G01*
%TO.C,D5*%
X806319500Y-109858000D02*
X802259500Y-109858000D01*
X806319500Y-112128000D02*
X806319500Y-109858000D01*
X802259500Y-112128000D02*
X806319500Y-112128000D01*
%TD*%
M02*
