%TF.GenerationSoftware,KiCad,Pcbnew,6.0.11-2627ca5db0~126~ubuntu20.04.1*%
%TF.CreationDate,2024-05-08T08:33:10-06:00*%
%TF.ProjectId,LaserPID,4c617365-7250-4494-942e-6b696361645f,rev?*%
%TF.SameCoordinates,Original*%
%TF.FileFunction,Soldermask,Top*%
%TF.FilePolarity,Negative*%
%FSLAX46Y46*%
G04 Gerber Fmt 4.6, Leading zero omitted, Abs format (unit mm)*
G04 Created by KiCad (PCBNEW 6.0.11-2627ca5db0~126~ubuntu20.04.1) date 2024-05-08 08:33:10*
%MOMM*%
%LPD*%
G01*
G04 APERTURE LIST*
G04 Aperture macros list*
%AMRoundRect*
0 Rectangle with rounded corners*
0 $1 Rounding radius*
0 $2 $3 $4 $5 $6 $7 $8 $9 X,Y pos of 4 corners*
0 Add a 4 corners polygon primitive as box body*
4,1,4,$2,$3,$4,$5,$6,$7,$8,$9,$2,$3,0*
0 Add four circle primitives for the rounded corners*
1,1,$1+$1,$2,$3*
1,1,$1+$1,$4,$5*
1,1,$1+$1,$6,$7*
1,1,$1+$1,$8,$9*
0 Add four rect primitives between the rounded corners*
20,1,$1+$1,$2,$3,$4,$5,0*
20,1,$1+$1,$4,$5,$6,$7,0*
20,1,$1+$1,$6,$7,$8,$9,0*
20,1,$1+$1,$8,$9,$2,$3,0*%
%AMFreePoly0*
4,1,127,3.606109,1.749963,3.639805,1.744716,3.673905,1.744508,3.709490,1.733866,3.746186,1.728152,3.777052,1.713661,3.809726,1.703889,3.840894,1.683687,3.874511,1.667904,3.900069,1.645332,3.928688,1.626782,3.952933,1.598644,3.980769,1.574060,3.998966,1.545219,4.021226,1.519385,4.036598,1.485576,4.056417,1.454165,4.065788,1.421377,4.079903,1.390333,4.085168,1.353567,
4.095374,1.317858,4.095166,1.283757,4.100000,1.250000,4.100000,-1.250000,4.099963,-1.256109,4.094716,-1.289805,4.094508,-1.323905,4.083866,-1.359490,4.078152,-1.396186,4.063661,-1.427052,4.053889,-1.459726,4.033687,-1.490894,4.017904,-1.524511,3.995332,-1.550069,3.976782,-1.578688,3.948644,-1.602933,3.924060,-1.630769,3.895219,-1.648966,3.869385,-1.671226,3.835576,-1.686598,
3.804165,-1.706417,3.771377,-1.715788,3.740333,-1.729903,3.703567,-1.735168,3.667858,-1.745374,3.633757,-1.745166,3.600000,-1.750000,1.500000,-1.750000,1.493891,-1.749963,1.460195,-1.744716,1.426095,-1.744508,1.390510,-1.733866,1.353814,-1.728152,1.322948,-1.713661,1.290274,-1.703889,1.259106,-1.683687,1.225489,-1.667904,1.199931,-1.645332,1.171312,-1.626782,1.147067,-1.598644,
1.119231,-1.574060,1.101034,-1.545219,1.078774,-1.519385,1.063402,-1.485576,1.043583,-1.454165,1.034212,-1.421377,1.020097,-1.390333,1.014832,-1.353567,1.004626,-1.317858,1.004834,-1.283757,1.000000,-1.250000,1.000000,-1.113992,0.968187,-1.145694,0.768064,-1.288440,0.547315,-1.396584,0.311868,-1.467221,0.068044,-1.498456,-0.177606,-1.489448,-0.418487,-1.440441,-0.648129,-1.352749,
-0.860365,-1.228728,-1.049495,-1.071709,-1.210440,-0.885909,-1.338879,-0.676316,-1.431360,-0.448561,-1.485402,-0.208760,-1.499552,0.036648,-1.473431,0.281072,-1.407740,0.517947,-1.304242,0.740913,-1.165719,0.943981,-0.995889,1.121697,-0.799314,1.269290,-0.581273,1.382795,-0.347622,1.459164,-0.104635,1.496346,0.141162,1.493343,0.383169,1.450235,0.614885,1.368180,0.830087,1.249382,
1.000000,1.115194,1.000000,1.250000,1.000037,1.256109,1.005284,1.289805,1.005492,1.323905,1.016134,1.359490,1.021848,1.396186,1.036339,1.427052,1.046111,1.459726,1.066313,1.490894,1.082096,1.524511,1.104668,1.550069,1.123218,1.578688,1.151356,1.602933,1.175940,1.630769,1.204781,1.648966,1.230615,1.671226,1.264424,1.686598,1.295835,1.706417,1.328623,1.715788,
1.359667,1.729903,1.396433,1.735168,1.432142,1.745374,1.466243,1.745166,1.500000,1.750000,3.600000,1.750000,3.606109,1.749963,3.606109,1.749963,$1*%
G04 Aperture macros list end*
%ADD10RoundRect,0.250000X-0.412500X-0.650000X0.412500X-0.650000X0.412500X0.650000X-0.412500X0.650000X0*%
%ADD11RoundRect,0.250000X0.412500X0.650000X-0.412500X0.650000X-0.412500X-0.650000X0.412500X-0.650000X0*%
%ADD12FreePoly0,90.000000*%
%ADD13FreePoly0,270.000000*%
%ADD14RoundRect,0.249999X0.650001X-0.412501X0.650001X0.412501X-0.650001X0.412501X-0.650001X-0.412501X0*%
%ADD15RoundRect,0.249999X-0.650001X0.412501X-0.650001X-0.412501X0.650001X-0.412501X0.650001X0.412501X0*%
%ADD16RoundRect,0.249999X-0.412501X-0.650001X0.412501X-0.650001X0.412501X0.650001X-0.412501X0.650001X0*%
%ADD17RoundRect,0.249999X0.412501X0.650001X-0.412501X0.650001X-0.412501X-0.650001X0.412501X-0.650001X0*%
%ADD18R,1.800000X1.800000*%
%ADD19C,1.800000*%
%ADD20R,3.000000X3.000000*%
%ADD21C,3.000000*%
%ADD22RoundRect,0.250000X-0.625000X0.400000X-0.625000X-0.400000X0.625000X-0.400000X0.625000X0.400000X0*%
%ADD23RoundRect,0.250000X0.400000X0.625000X-0.400000X0.625000X-0.400000X-0.625000X0.400000X-0.625000X0*%
%ADD24RoundRect,0.250000X0.625000X-0.400000X0.625000X0.400000X-0.625000X0.400000X-0.625000X-0.400000X0*%
%ADD25RoundRect,0.250000X-0.400000X-0.625000X0.400000X-0.625000X0.400000X0.625000X-0.400000X0.625000X0*%
%ADD26C,1.440000*%
%ADD27R,1.600000X1.600000*%
%ADD28O,1.600000X1.600000*%
%ADD29RoundRect,0.150000X0.825000X0.150000X-0.825000X0.150000X-0.825000X-0.150000X0.825000X-0.150000X0*%
%ADD30O,2.500000X1.600000*%
%ADD31O,7.000000X3.500000*%
%ADD32RoundRect,0.250001X-0.462499X-0.624999X0.462499X-0.624999X0.462499X0.624999X-0.462499X0.624999X0*%
%ADD33C,1.000000*%
%ADD34R,1.050000X1.500000*%
%ADD35O,1.050000X1.500000*%
%ADD36C,4.300000*%
%ADD37R,3.000000X1.000000*%
%ADD38RoundRect,0.250001X0.462499X0.624999X-0.462499X0.624999X-0.462499X-0.624999X0.462499X-0.624999X0*%
G04 APERTURE END LIST*
D10*
%TO.C,C1*%
X802398300Y-103200200D03*
X805523300Y-103200200D03*
%TD*%
D11*
%TO.C,C2*%
X805472500Y-108204000D03*
X802347500Y-108204000D03*
%TD*%
D10*
%TO.C,C3*%
X796873400Y-103962200D03*
X799998400Y-103962200D03*
%TD*%
D12*
%TO.C,C6*%
X784860000Y-46719000D03*
D13*
X784860000Y-37829000D03*
%TD*%
D14*
%TO.C,C7*%
X771525000Y-56808500D03*
X771525000Y-53683500D03*
%TD*%
D15*
%TO.C,C8*%
X779653000Y-36537500D03*
X779653000Y-39662500D03*
%TD*%
D14*
%TO.C,C9*%
X771525000Y-78105000D03*
X771525000Y-74980000D03*
%TD*%
D15*
%TO.C,C10*%
X779780000Y-58127500D03*
X779780000Y-61252500D03*
%TD*%
D16*
%TO.C,C11*%
X794308000Y-62230000D03*
X797433000Y-62230000D03*
%TD*%
D15*
%TO.C,C12*%
X808951500Y-50253500D03*
X808951500Y-53378500D03*
%TD*%
D14*
%TO.C,C16*%
X771398000Y-128651000D03*
X771398000Y-125526000D03*
%TD*%
D17*
%TO.C,C18*%
X813258000Y-85852000D03*
X810133000Y-85852000D03*
%TD*%
D15*
%TO.C,C20*%
X797267500Y-23403500D03*
X797267500Y-26528500D03*
%TD*%
D18*
%TO.C,D3*%
X803910000Y-118414800D03*
D19*
X801370000Y-118414800D03*
%TD*%
D20*
%TO.C,P1*%
X813181000Y-100584000D03*
D21*
X813181000Y-105664000D03*
X813181000Y-110744000D03*
%TD*%
D22*
%TO.C,R1*%
X797267500Y-42037000D03*
X797267500Y-45137000D03*
%TD*%
D23*
%TO.C,R2*%
X793229500Y-45212000D03*
X790129500Y-45212000D03*
%TD*%
D13*
%TO.C,R6*%
X784987000Y-51761000D03*
D12*
X784987000Y-60651000D03*
%TD*%
D23*
%TO.C,R7*%
X788696000Y-30861000D03*
X785596000Y-30861000D03*
%TD*%
D24*
%TO.C,R8*%
X799261800Y-70002400D03*
X799261800Y-66902400D03*
%TD*%
D23*
%TO.C,R9*%
X803008500Y-26289000D03*
X799908500Y-26289000D03*
%TD*%
D25*
%TO.C,R10*%
X799934500Y-22860000D03*
X803034500Y-22860000D03*
%TD*%
D24*
%TO.C,R12*%
X797267500Y-39168000D03*
X797267500Y-36068000D03*
%TD*%
D22*
%TO.C,R13*%
X792695500Y-30861000D03*
X792695500Y-33961000D03*
%TD*%
D26*
%TO.C,RVGAIN1*%
X793800800Y-66741200D03*
X793800800Y-69281200D03*
X793800800Y-71821200D03*
%TD*%
%TO.C,RVULIM*%
X804408000Y-79883000D03*
X806948000Y-79883000D03*
X809488000Y-79883000D03*
%TD*%
D27*
%TO.C,U2*%
X771511499Y-42672000D03*
D28*
X771511499Y-45212000D03*
X771511499Y-47752000D03*
X771511499Y-50292000D03*
X779131499Y-50292000D03*
X779131499Y-47752000D03*
X779131499Y-45212000D03*
X779131499Y-42672000D03*
%TD*%
D27*
%TO.C,U3*%
X771511499Y-64375499D03*
D28*
X771511499Y-66915499D03*
X771511499Y-69455499D03*
X771511499Y-71995499D03*
X779131499Y-71995499D03*
X779131499Y-69455499D03*
X779131499Y-66915499D03*
X779131499Y-64375499D03*
%TD*%
D27*
%TO.C,U4*%
X797404500Y-50810000D03*
D28*
X797404500Y-53350000D03*
X797404500Y-55890000D03*
X797404500Y-58430000D03*
X805024500Y-58430000D03*
X805024500Y-55890000D03*
X805024500Y-53350000D03*
X805024500Y-50810000D03*
%TD*%
D27*
%TO.C,U6*%
X771511499Y-113538000D03*
D28*
X771511499Y-116078000D03*
X771511499Y-118618000D03*
X771511499Y-121158000D03*
X779131499Y-121158000D03*
X779131499Y-118618000D03*
X779131499Y-116078000D03*
X779131499Y-113538000D03*
%TD*%
D29*
%TO.C,U7*%
X802282500Y-33427000D03*
X802282500Y-32157000D03*
X802282500Y-30887000D03*
X802282500Y-29617000D03*
X797332500Y-29617000D03*
X797332500Y-30887000D03*
X797332500Y-32157000D03*
X797332500Y-33427000D03*
%TD*%
D23*
%TO.C,R5*%
X798551200Y-118440200D03*
X795451200Y-118440200D03*
%TD*%
D27*
%TO.C,D1*%
X806958000Y-85852000D03*
D28*
X799338000Y-85852000D03*
%TD*%
D15*
%TO.C,C5*%
X779780000Y-78066500D03*
X779780000Y-81191500D03*
%TD*%
D16*
%TO.C,C4*%
X768311500Y-95377000D03*
X771436500Y-95377000D03*
%TD*%
D27*
%TO.C,U1*%
X771511499Y-84074000D03*
D28*
X771511499Y-86614000D03*
X771511499Y-89154000D03*
X771511499Y-91694000D03*
X779131499Y-91694000D03*
X779131499Y-89154000D03*
X779131499Y-86614000D03*
X779131499Y-84074000D03*
%TD*%
D24*
%TO.C,R11*%
X802347500Y-39168000D03*
X802347500Y-36068000D03*
%TD*%
D15*
%TO.C,C17*%
X779780000Y-107403500D03*
X779780000Y-110528500D03*
%TD*%
D26*
%TO.C,RVPROP1*%
X784987000Y-66802000D03*
X784987000Y-69342000D03*
X784987000Y-71882000D03*
%TD*%
D27*
%TO.C,D2*%
X799211000Y-74676000D03*
D28*
X806831000Y-74676000D03*
%TD*%
D17*
%TO.C,C19*%
X813272500Y-74676000D03*
X810147500Y-74676000D03*
%TD*%
D26*
%TO.C,RVLLIM*%
X804281000Y-68707000D03*
X806821000Y-68707000D03*
X809361000Y-68707000D03*
%TD*%
D30*
%TO.C,P4*%
X759616000Y-115570000D03*
D31*
X754536000Y-120650000D03*
D30*
X759616000Y-118110000D03*
D31*
X754536000Y-110490000D03*
%TD*%
D32*
%TO.C,D4*%
X802459000Y-100325000D03*
X805434000Y-100325000D03*
%TD*%
D33*
%TO.C,W6*%
X814349400Y-68707000D03*
%TD*%
D34*
%TO.C,U5*%
X796899600Y-100334400D03*
D35*
X798169600Y-100334400D03*
X799439600Y-100334400D03*
%TD*%
D33*
%TO.C,W5*%
X814324000Y-79908400D03*
%TD*%
D36*
%TO.C,REF\u002A\u002A*%
X751586000Y-131064000D03*
%TD*%
D30*
%TO.C,P5*%
X759616000Y-39374000D03*
X759616000Y-41914000D03*
D31*
X754536000Y-34294000D03*
X754536000Y-44454000D03*
%TD*%
D33*
%TO.C,W3*%
X784987000Y-76835000D03*
%TD*%
%TO.C,W1*%
X784606000Y-86106000D03*
%TD*%
D36*
%TO.C,REF\u002A\u002A*%
X812546000Y-23876000D03*
%TD*%
D33*
%TO.C,W2*%
X791692600Y-40589200D03*
%TD*%
D30*
%TO.C,P2*%
X759616000Y-64774000D03*
X759616000Y-67314000D03*
D31*
X754536000Y-59694000D03*
X754536000Y-69854000D03*
%TD*%
D34*
%TO.C,U8*%
X799312600Y-110968200D03*
D35*
X798042600Y-110968200D03*
X796772600Y-110968200D03*
%TD*%
D37*
%TO.C,SW1*%
X765792000Y-101978000D03*
X765792000Y-104478000D03*
X765792000Y-106978000D03*
X769892000Y-101978000D03*
X769892000Y-104478000D03*
X769892000Y-106978000D03*
%TD*%
D11*
%TO.C,C13*%
X799999200Y-107188000D03*
X796874200Y-107188000D03*
%TD*%
D30*
%TO.C,P3*%
X759616000Y-90170000D03*
D31*
X754536000Y-85090000D03*
X754536000Y-95250000D03*
D30*
X759616000Y-92710000D03*
%TD*%
D36*
%TO.C,REF\u002A\u002A*%
X812546000Y-131064000D03*
%TD*%
D33*
%TO.C,W4*%
X808812200Y-57378600D03*
%TD*%
D38*
%TO.C,D5*%
X805347000Y-110993000D03*
X802372000Y-110993000D03*
%TD*%
D36*
%TO.C,REF\u002A\u002A*%
X751586000Y-23876000D03*
%TD*%
M02*
